mtllib materials.mtl
v 0.04661608 -0.02682811 0.006358027
v 0.04661608 0.00407356 0.006358027
v 0.04828954 0.00407356 0.001646399
v 0.04828942 -0.02682811 0.001646399
v 0.02950001 0.0290736 0.0002790689
v 0.03117335 0.0290736 -0.004432678
v 0.001805544 0.03862274 -0.009557128
v 0.003479004 0.03862274 -0.01426876
v -0.0258888 0.0290736 -0.01939321
v -0.02421534 0.0290736 -0.02410483
v -0.04300487 0.00407356 -0.02547228
v -0.04133141 0.00407356 -0.03018391
v -0.04300487 -0.02682811 -0.02547228
v -0.04133141 -0.02682811 -0.03018391
v -0.0258888 -0.05182815 -0.01939321
v -0.02421534 -0.05182815 -0.02410483
v 0.001805544 -0.06137729 -0.009557128
v 0.003479004 -0.06137729 -0.01426876
v 0.02950001 -0.05182815 0.0002789497
v 0.03117335 -0.05182815 -0.004432678
v 0.02421081 -0.04410273 -0.00159955
v 0.001805544 0.0290736 -0.009557128
v 0.03805804 0.001122773 0.003318548
v -0.02059984 -0.04410261 -0.01751471
v 0.001805425 -0.04410267 -0.009557128
v -0.03444684 0.001122653 -0.0224328
v 0.03113449 -0.02148986 0.000859499
v 0.01993179 0.01509815 -0.00311923
v -0.01632059 0.01509815 -0.01599491
v -0.0275234 -0.0214898 -0.01997375
v -0.02340913 0.01530135 0.006891012
v -0.03497589 -0.02118677 0.003038526
v 0.01271439 0.01498789 0.02012002
v 0.02347362 -0.021694 0.02444339
v -0.006000757 -0.04405135 0.01388645
v 0.03933501 -0.02791816 0.03047585
v 0.03933501 0.00298351 0.03047585
v 0.04100847 0.00298351 0.02576423
v 0.04100835 -0.02791816 0.02576423
v 0.02221894 0.02798355 0.0243969
v 0.02389228 0.02798355 0.01968515
v -0.005475521 0.03753269 0.0145607
v -0.003802061 0.03753269 0.009849072
v -0.03316987 0.02798355 0.004724622
v -0.03149641 0.02798355 1.299381E-05
v -0.05028594 0.00298351 -0.001354456
v -0.04861248 0.00298351 -0.006066084
v -0.05028594 -0.02791816 -0.001354456
v -0.04861248 -0.02791816 -0.006066084
v -0.03316987 -0.0529182 0.004724622
v -0.03149641 -0.0529182 1.299381E-05
v -0.005475521 -0.06246734 0.0145607
v -0.003802061 -0.06246734 0.009849072
v 0.02221894 -0.0529182 0.02439678
v 0.02389228 -0.0529182 0.01968515
v 0.01703334 0.07489413 0.02359271
v -0.0227381 0.07589936 0.008854389
v -0.02100098 0.07588714 0.004165888
v 0.01877046 0.07488191 0.01890421
v -0.02532554 -0.03624469 0.008187771
v -0.02358842 -0.03625691 0.003499269
v 0.0144459 -0.03724992 0.02292621
v 0.01618302 -0.03726214 0.01823759
v -0.01747453 0.07925063 -0.02155316
v 0.02262449 0.07953113 -0.007697225
v 0.0209918 0.07949305 -0.00297153
v -0.01910722 0.07921255 -0.01682746
v 0.02360666 -0.03288603 -0.008263826
v 0.02197397 -0.03292406 -0.003538013
v -0.01649237 -0.03316653 -0.02211976
v -0.01812506 -0.03320456 -0.01739395
v 0.007030249 0.003124774 -0.02195251
v 0.01396763 0.0006478429 -0.01949763
v 0.00370276 -0.0001758933 0.008679509
v -0.003234625 0.002301037 0.006224632
v 0.01884604 -0.005175173 -0.01789069
v 0.008581161 -0.00599885 0.01028645
v 0.02035832 -0.01278394 -0.01756227
v 0.01009345 -0.01360768 0.01061499
v 0.01809931 -0.02013975 -0.01860023
v 0.007834435 -0.02096349 0.009577036
v 0.01267421 -0.02527159 -0.02072656
v 0.002409339 -0.02609533 0.0074507
v 0.005536795 -0.02680439 -0.02337146
v -0.004728079 -0.02762812 0.004805684
v -0.00140059 -0.02432746 -0.02582633
v -0.01166546 -0.02515119 0.002350807
v -0.006278992 -0.0185045 -0.02743328
v -0.01654387 -0.01932818 0.000743866
v -0.007791281 -0.01089567 -0.02776182
v -0.01805615 -0.01171941 0.0004154444
v -0.005532265 -0.00353992 -0.02672386
v -0.01579714 -0.004363596 0.0014534
v -0.0001071692 0.00159198 -0.02459753
v -0.01037204 0.0007682443 0.003579736
v -0.006806731 0.002708435 0.02604496
v -0.0140183 0.001577556 0.02339864
v -0.003440619 -0.0003371239 -0.004609346
v 0.003770947 0.0007937551 -0.001963019
v -0.01982021 -0.003234684 0.02153647
v -0.009242535 -0.005149424 -0.006471515
v -0.02265787 -0.01043892 0.02095723
v -0.01208019 -0.0123536 -0.007050753
v -0.02177107 -0.01810467 0.02181625
v -0.01119339 -0.02001935 -0.00619173
v -0.01739717 -0.02417797 0.02388334
v -0.006819487 -0.02609271 -0.004124641
v -0.01070821 -0.02703148 0.02660453
v -0.0001305342 -0.02894616 -0.001403451
v -0.003496647 -0.0259006 0.02925086
v 0.007081032 -0.02781528 0.001242876
v 0.002305269 -0.0210883 0.03111303
v 0.01288295 -0.02300304 0.003105044
v 0.005142927 -0.01388413 0.03169227
v 0.01572061 -0.01579881 0.003684282
v 0.004256129 -0.006218374 0.03083324
v 0.01483381 -0.008133054 0.00282526
v -0.0001177788 -0.0001450181 0.02876616
v 0.0104599 -0.002059758 0.0007581711
v -0.02532709 0.06464571 -0.03841805
v 0.05219364 0.06854922 -0.0105648
v 0.05131149 0.08852679 -0.01090908
v -0.02620935 0.08462328 -0.03876245
v -0.04308081 0.06471306 0.01098418
v -0.04396296 0.08469063 0.01063991
v 0.03355777 0.08859414 0.03849316
v 0.03444004 0.06861657 0.03883755
vn 0.9423304 -1.984058E-07 0.334684
vn 0.7623614 0.5877851 0.2707652
vn 0.2911961 0.9510565 0.103423
vn -0.2911962 0.9510565 -0.1034229
vn -0.7623612 0.5877854 -0.270765
vn -0.9423304 9.495589E-08 -0.334684
vn -0.7623615 -0.5877852 -0.270765
vn -0.2911961 -0.9510566 -0.1034228
vn 0.2911961 -0.9510565 0.1034229
vn 0.7623613 -0.5877854 0.2707649
vn -0.3346853 1.769412E-06 0.9423299
vn 0.3346841 1.192093E-07 -0.9423305
vn -0.334684 -1.538129E-06 0.9423304
vn -0.3346843 -1.788305E-07 0.9423304
vn -0.3346826 -2.144518E-06 0.942331
vn -0.3346871 -4.576595E-06 0.9423294
vn -0.3346786 -2.017061E-06 0.9423324
vn -0.3346858 4.588311E-08 0.9423298
vn -0.3346827 2.294278E-06 0.9423309
vn -0.3346848 -6.735413E-07 0.9423301
vn -0.3346856 1.799916E-06 0.9423298
vn -0.3346834 1.691591E-06 0.9423307
vn -0.3346882 1.797524E-06 0.9423289
vn -0.3346853 2.579311E-06 0.9423301
vn -0.3346828 -1.89693E-06 0.9423308
vn -0.3346818 -4.688011E-07 0.9423312
vn -0.9044383 0.3128884 -0.2899865
vn 0.004548691 0.9999895 -0.0006037667
vn 0.9071053 0.3047874 0.2902836
vn 0.5561439 -0.8112981 0.1802759
vn -0.563685 -0.8063623 -0.1789947
vn -0.3437868 0.009837082 0.9389963
vn 0.9423304 -1.984058E-07 0.334684
vn 0.7623614 0.5877851 0.2707652
vn 0.2911961 0.9510565 0.103423
vn -0.2911962 0.9510565 -0.1034229
vn -0.7623612 0.5877854 -0.270765
vn -0.9423304 9.495589E-08 -0.334684
vn -0.7623615 -0.5877852 -0.270765
vn -0.2911961 -0.9510566 -0.1034228
vn 0.2911961 -0.9510565 0.1034229
vn 0.7623613 -0.5877854 0.2707649
vn -0.3346841 -1.184716E-07 0.9423305
vn 0.3346841 1.192093E-07 -0.9423305
vn 0.02306635 0.9997163 0.005941207
vn -0.9374236 0.02369379 -0.3473841
vn -0.02306572 -0.9997163 -0.005943494
vn 0.9374233 -0.02369341 0.3473847
vn -0.3474281 0.002442576 0.9377034
vn 0.3474281 -0.002442375 -0.9377034
vn -0.008736728 0.9999492 0.005040964
vn 0.9451431 0.006611721 0.3265897
vn 0.008735564 -0.9999492 -0.005037079
vn -0.9451431 -0.006611342 -0.3265897
vn 0.3265373 0.007616554 -0.9451537
vn -0.3265373 -0.007615952 0.9451537
vn 0.2909412 0.9473554 0.133683
vn 0.6986947 0.6609315 0.2738526
vn 0.9192337 0.1974113 0.3406438
vn 0.8934647 -0.3190048 0.3161597
vn 0.6282925 -0.7499439 0.2069608
vn 0.1947698 -0.9799362 0.04230697
vn -0.2909414 -0.9473553 -0.133683
vn -0.6986949 -0.6609314 -0.2738527
vn -0.9192337 -0.1974114 -0.3406438
vn -0.8934647 0.3190047 -0.3161597
vn -0.6282924 0.7499439 -0.2069608
vn -0.1947697 0.9799362 -0.04230693
vn 0.342161 0.02745719 -0.9392401
vn -0.342161 -0.02745716 0.9392402
vn -0.1142251 0.9872757 -0.1106318
vn -0.563312 0.7821819 -0.2662162
vn -0.8614602 0.3675029 -0.3504683
vn -0.9287806 -0.145648 -0.3408126
vn -0.7472351 -0.6197727 -0.2398365
vn -0.3654685 -0.9278299 -0.07459638
vn 0.1142253 -0.9872757 0.1106318
vn 0.5633122 -0.7821818 0.2662162
vn 0.8614602 -0.3675029 0.3504683
vn 0.9287806 0.1456479 0.3408126
vn 0.7472351 0.6197727 0.2398365
vn 0.3654684 0.9278299 0.07459633
vn -0.3525893 0.06382337 0.9335992
vn 0.3525893 -0.06382335 -0.9335992
vn 0.3381945 -0.001282815 -0.9410754
vn -0.3381945 0.001282815 0.9410754
vn 0.04411235 -0.9988783 0.01721421
vn -0.04411235 0.9988783 -0.01721421
vn -0.9400418 -0.04733479 -0.3377585
vn 0.9400418 0.04733479 0.3377585
vt 0.004054195 -0.1202251
vt 0.006532381 -0.1183791
vt 0.006233692 -0.1179782
vt 0.003755509 -0.1198242
vt -0.1989075 -0.07607553
vt -0.1958386 -0.07643729
vt -0.1957801 -0.07594072
vt -0.198849 -0.07557897
vt -0.2407628 0.08991093
vt -0.2385063 0.08779968
vt -0.2381647 0.0881648
vt -0.2404212 0.09027604
vt -0.1943803 0.10163
vt -0.1925808 0.0991179
vt -0.1921743 0.09940907
vt -0.1939738 0.1019212
vt -0.1271996 0.004379014
vt -0.1253364 0.001913725
vt -0.1249375 0.002215198
vt -0.1268007 0.004680487
vt -0.006532352 -0.1183792
vt -0.004054165 -0.1202252
vt -0.003755477 -0.1198242
vt -0.006233663 -0.1179782
vt 0.1958386 -0.07643728
vt 0.1989076 -0.07607554
vt 0.198849 -0.07557897
vt 0.1957801 -0.07594072
vt 0.2385062 0.08779973
vt 0.2407628 0.08991097
vt 0.2404211 0.09027608
vt 0.2381647 0.08816484
vt 0.1925808 0.09911792
vt 0.1943803 0.1016301
vt 0.1939739 0.1019212
vt 0.1921743 0.09940909
vt 0.1253364 0.001913713
vt 0.1271996 0.004379002
vt 0.1268007 0.004680468
vt 0.1249375 0.002215179
vt -0.1796491 0.1587785
vt -0.178939 0.155771
vt -0.1786975 0.1587
vt -0.178456 0.161629
vt 0.1784555 0.1616292
vt 0.1758147 0.163234
vt 0.1727349 0.1629801
vt 0.1703927 0.1609644
vt 0.1696825 0.157957
vt 0.1708757 0.1551064
vt 0.1735165 0.1535017
vt 0.1765962 0.1537556
vt 0.1789385 0.1557713
vt 0.1796487 0.1587787
vt -0.1696822 0.1579572
vt -0.1703924 0.1609646
vt -0.1727347 0.1629803
vt -0.1712085 0.1604687
vt -0.1727349 0.1629801
vt -0.1758147 0.163234
vt -0.1784555 0.1616293
vt -0.1755952 0.1623047
vt -0.178938 0.1557716
vt -0.1762269 0.1546368
vt -0.1774617 0.1566686
vt -0.1786964 0.1587006
vt -0.178938 0.155772
vt -0.1765958 0.1537564
vt -0.173516 0.1535024
vt -0.176227 0.1546372
vt -0.1735155 0.1535018
vt -0.1708747 0.1551066
vt -0.1696815 0.1579571
vt -0.1715985 0.1557295
vt -0.1755954 0.1623047
vt -0.1784557 0.1616293
vt -0.1786972 0.1587003
vt -0.1771463 0.1605025
vt -0.171209 0.1604681
vt -0.1727352 0.1629797
vt -0.1755955 0.1623043
vt -0.1734022 0.1613862
vt -0.1715995 0.1557294
vt -0.1696825 0.1579571
vt -0.1712087 0.1604686
vt -0.1714041 0.158099
vt -0.176228 0.1546362
vt -0.173517 0.1535014
vt -0.1716 0.1557291
vt -0.173914 0.1551826
vt -0.1762277 0.1546362
vt -0.1739137 0.1551826
vt -0.1774625 0.1566681
vt -0.1739143 0.1551827
vt -0.1716003 0.1557291
vt -0.1714049 0.1580987
vt -0.1714047 0.1580985
vt -0.1712093 0.1604681
vt -0.1734026 0.1613862
vt -0.1734015 0.1613868
vt -0.1755947 0.1623049
vt -0.1771456 0.1605027
vt -0.1771457 0.1605025
vt -0.1786966 0.1587003
vt -0.1774619 0.1566684
vt -0.08232451 -0.06642469
vt -0.08488328 -0.06355196
vt -0.08670502 -0.06510808
vt -0.08416359 -0.06799616
vt -0.218371 0.1113739
vt -0.2208042 0.1143537
vt -0.2227493 0.1128916
vt -0.2202872 0.1099356
vt -0.08881996 -0.1421043
vt -0.09245032 -0.1433773
vt -0.09166797 -0.1457303
vt -0.0880532 -0.1444138
vt 0.1672184 0.06154804
vt 0.1650169 0.05839316
vt 0.1670672 0.05701432
vt 0.169276 0.06016411
vt 0.2443063 0.02243391
vt 0.2409543 0.02054611
vt 0.2421735 0.01845679
vt 0.2455506 0.02029925
vt -0.1767213 0.1539172
vt -0.1742637 0.156877
vt -0.1763191 0.1601289
vt -0.1800471 0.159179
vt -0.1802956 0.15534
vt 0.005470013 -0.1223083
vt 0.007948199 -0.1204623
vt 0.00764951 -0.1200613
vt 0.005171326 -0.1219073
vt -0.1993604 -0.07855596
vt -0.1962915 -0.07891771
vt -0.1962329 -0.07842115
vt -0.1993019 -0.07805939
vt -0.2425907 0.0881751
vt -0.2403342 0.08606385
vt -0.2399926 0.08642897
vt -0.2422491 0.08854021
vt -0.1964734 0.1002309
vt -0.1946739 0.09771873
vt -0.1942674 0.09800991
vt -0.196067 0.100522
vt -0.1291968 0.002848197
vt -0.1273336 0.0003829073
vt -0.1269347 0.0006843805
vt -0.1287979 0.00314967
vt -0.007948169 -0.1204623
vt -0.005469983 -0.1223083
vt -0.005171294 -0.1219073
vt -0.00764948 -0.1200613
vt 0.1962915 -0.07891771
vt 0.1993604 -0.07855596
vt 0.1993019 -0.0780594
vt 0.1962329 -0.07842115
vt 0.2403342 0.08606391
vt 0.2425906 0.08817514
vt 0.2422491 0.08854026
vt 0.2399925 0.08642901
vt 0.1946739 0.09771875
vt 0.1964734 0.1002309
vt 0.196067 0.1005221
vt 0.1942675 0.09800992
vt 0.1273336 0.0003828957
vt 0.1291968 0.002848185
vt 0.1287979 0.003149651
vt 0.1269347 0.0006843612
vt -0.1798047 0.1588256
vt -0.1790945 0.1558181
vt -0.1767522 0.1538025
vt -0.1736725 0.1535485
vt -0.1710317 0.1551533
vt -0.1698385 0.1580038
vt -0.1705487 0.1610113
vt -0.172891 0.1630269
vt -0.1759707 0.1632809
vt -0.1786115 0.1616761
vt 0.1786115 0.1616761
vt 0.1759707 0.1632809
vt 0.172891 0.1630269
vt 0.1705487 0.1610113
vt 0.1698385 0.1580038
vt 0.1710317 0.1551533
vt 0.1736725 0.1535485
vt 0.1767522 0.1538025
vt 0.1790945 0.1558181
vt 0.1798047 0.1588256
vt -0.2245883 0.1126431
vt -0.221841 0.1094101
vt -0.22146 0.1097339
vt -0.2242073 0.1129669
vt -0.01741057 -0.1103064
vt -0.008499539 -0.1171202
vt -0.008195829 -0.116723
vt -0.01710686 -0.1099092
vt 0.2218412 0.1094098
vt 0.2245886 0.1126428
vt 0.2242075 0.1129666
vt 0.2214602 0.1097336
vt 0.008499312 -0.1171201
vt 0.01741033 -0.1103063
vt 0.01710663 -0.1099091
vt 0.008195596 -0.1167229
vt -0.1800006 0.1588423
vt -0.177689 0.1552848
vt -0.1682827 0.1613967
vt -0.1705943 0.1649543
vt 0.1705943 0.1649543
vt 0.1682827 0.1613968
vt 0.177689 0.1552848
vt 0.1800006 0.1588424
vt -0.2178946 0.110503
vt -0.220551 0.1138112
vt -0.2209408 0.1134981
vt -0.2182845 0.1101899
vt 0.01220919 -0.1159169
vt 0.003141046 -0.1225621
vt 0.003436594 -0.1229654
vt 0.01250473 -0.1163202
vt 0.2205505 0.1138116
vt 0.2178942 0.1105035
vt 0.2182841 0.1101904
vt 0.2209404 0.1134986
vt -0.003141152 -0.122562
vt -0.0122093 -0.1159169
vt -0.01250484 -0.1163202
vt -0.0034367 -0.1229653
vt 0.1731338 0.1563881
vt 0.1752854 0.1600447
vt 0.1655959 0.165746
vt 0.1634444 0.1620894
vt -0.1634445 0.1620893
vt -0.165596 0.1657459
vt -0.1752855 0.1600446
vt -0.1731339 0.156388
vt -0.2400164 0.08464762
vt -0.240594 0.08516651
vt -0.2425988 0.08293478
vt -0.2420212 0.08241589
vt -0.2160298 -0.04459376
vt -0.2167814 -0.04439872
vt -0.2175349 -0.04730253
vt -0.2167834 -0.04749757
vt -0.05822621 -0.1329275
vt -0.05893458 -0.1332455
vt -0.05770609 -0.1359824
vt -0.05699772 -0.1356644
vt 0.07826407 -0.05919675
vt 0.07772508 -0.05975566
vt 0.07988451 -0.06183816
vt 0.08042351 -0.06127926
vt 0.1544949 0.04467199
vt 0.1540321 0.04404853
vt 0.156441 0.04226043
vt 0.1569038 0.0428839
vt 0.2054091 0.1067834
vt 0.2049349 0.1061686
vt 0.2073103 0.1043363
vt 0.2077846 0.1049511
vt 0.240594 0.08516646
vt 0.2400164 0.08464757
vt 0.2420212 0.08241584
vt 0.2425988 0.08293473
vt 0.2167813 -0.04439878
vt 0.2160298 -0.04459381
vt 0.2167833 -0.04749763
vt 0.2175349 -0.04730259
vt 0.05893459 -0.1332455
vt 0.05822622 -0.1329275
vt 0.05699773 -0.1356644
vt 0.0577061 -0.1359824
vt -0.07772506 -0.05975566
vt -0.07826404 -0.05919676
vt -0.08042349 -0.06127926
vt -0.0798845 -0.06183817
vt -0.1540321 0.04404853
vt -0.1544949 0.044672
vt -0.1569038 0.04288391
vt -0.156441 0.04226044
vt -0.2049349 0.1061686
vt -0.2054091 0.1067834
vt -0.2077846 0.1049511
vt -0.2073103 0.1043363
vt 0.1690855 0.1628764
vt 0.1692324 0.1621139
vt 0.1697408 0.1615271
vt 0.1704745 0.161273
vt 0.171237 0.1614199
vt 0.1718238 0.1619283
vt 0.1720779 0.1626621
vt 0.171931 0.1634245
vt 0.1714226 0.1640113
vt 0.1706889 0.1642654
vt 0.1699264 0.1641185
vt 0.1693396 0.1636101
vt -0.1693396 0.1636101
vt -0.1699264 0.1641185
vt -0.1706889 0.1642654
vt -0.1714226 0.1640114
vt -0.171931 0.1634245
vt -0.1720779 0.1626621
vt -0.1718238 0.1619283
vt -0.171237 0.1614199
vt -0.1704745 0.1612731
vt -0.1697408 0.1615271
vt -0.1692324 0.1621139
vt -0.1690855 0.1628764
vt -0.2036697 0.1171136
vt -0.2032064 0.1164905
vt -0.2007988 0.1182803
vt -0.201262 0.1189034
vt -0.1523567 0.05872252
vt -0.151923 0.05807846
vt -0.1494346 0.059754
vt -0.1498682 0.06039806
vt -0.08288147 -0.04643122
vt -0.08239098 -0.04703315
vt -0.08006531 -0.0451381
vt -0.08055578 -0.04453617
vt 0.03825469 -0.1356296
vt 0.03890853 -0.1360483
vt 0.04052651 -0.133522
vt 0.03987266 -0.1331033
vt 0.2083424 -0.06965882
vt 0.2091135 -0.06956787
vt 0.2087621 -0.06658853
vt 0.207991 -0.06667946
vt 0.2427968 0.08259571
vt 0.2433899 0.08309676
vt 0.241454 0.08538853
vt 0.2408609 0.08488747
vt 0.2032064 0.1164905
vt 0.2036696 0.1171136
vt 0.201262 0.1189034
vt 0.2007988 0.1182803
vt 0.151923 0.05807843
vt 0.1523567 0.05872249
vt 0.1498682 0.06039803
vt 0.1494345 0.05975397
vt 0.08239099 -0.04703316
vt 0.08288147 -0.04643124
vt 0.08055579 -0.04453618
vt 0.08006531 -0.04513811
vt -0.03890853 -0.1360483
vt -0.03825468 -0.1356295
vt -0.03987265 -0.1331033
vt -0.0405265 -0.133522
vt -0.2091135 -0.06956785
vt -0.2083424 -0.06965879
vt -0.207991 -0.06667944
vt -0.2087621 -0.06658851
vt -0.2433899 0.08309679
vt -0.2427968 0.08259572
vt -0.2408608 0.0848875
vt -0.241454 0.08538856
vt -0.1874499 0.150174
vt -0.1882239 0.1502354
vt -0.1889249 0.1499017
vt -0.1893652 0.1492621
vt -0.1894266 0.1484881
vt -0.1890929 0.147787
vt -0.1884533 0.1473468
vt -0.1876793 0.1472853
vt -0.1869782 0.1476191
vt -0.186538 0.1482587
vt -0.1864765 0.1490327
vt -0.1868103 0.1497337
vt 0.1868103 0.1497338
vt 0.1864765 0.1490327
vt 0.186538 0.1482587
vt 0.1869782 0.1476191
vt 0.1876792 0.1472853
vt 0.1884533 0.1473468
vt 0.1890929 0.147787
vt 0.1894266 0.1484881
vt 0.1893652 0.1492621
vt 0.1889249 0.1499017
vt 0.1882239 0.1502354
vt 0.1874499 0.150174
vt 0.1669703 0.1591948
vt 0.1709299 0.1664286
vt 0.1691755 0.1673889
vt 0.165216 0.1601551
vt -0.1669703 0.1591948
vt -0.165216 0.1601551
vt -0.1691755 0.1673889
vt -0.1709299 0.1664286
vt 0.2123075 0.1117255
vt 0.2164087 0.1084486
vt 0.2215565 0.1148911
vt 0.2174553 0.118168
vt -0.2123075 0.1117255
vt -0.2174553 0.118168
vt -0.2215565 0.1148911
vt -0.2164087 0.1084486
vt 0.003450928 -0.1188737
vt 0.001800952 -0.1177434
vt -0.001165821 -0.1220742
vt 0.0004841577 -0.1232045
vt -0.003450929 -0.1188737
vt -0.0004841549 -0.1232045
vt 0.001165821 -0.1220742
vt -0.00180095 -0.1177434
o group729138149
g mesh729138149
usemtl mat22
f 75/242/57 74/241/57 73/240/57 72/239/57
f 74/246/58 77/245/58 76/244/58 73/243/58
f 77/250/59 79/249/59 78/248/59 76/247/59
f 79/254/60 81/253/60 80/252/60 78/251/60
f 81/258/61 83/257/61 82/256/61 80/255/61
f 83/262/62 85/261/62 84/260/62 82/259/62
f 85/266/63 87/265/63 86/264/63 84/263/63
f 87/270/64 89/269/64 88/268/64 86/267/64
f 89/274/65 91/273/65 90/272/65 88/271/65
f 91/278/66 93/277/66 92/276/66 90/275/66
f 93/282/67 95/281/67 94/280/67 92/279/67
f 95/286/68 75/285/68 72/284/68 94/283/68
f 72/298/69 73/297/69 76/296/69 78/295/69 80/294/69 82/293/69 84/292/69 86/291/69 88/290/69 90/289/69 92/288/69 94/287/69
f 95/310/70 93/309/70 91/308/70 89/307/70 87/306/70 85/305/70 83/304/70 81/303/70 79/302/70 77/301/70 74/300/70 75/299/70
o group785099496
g mesh785099496
usemtl mat22
f 99/314/71 98/313/71 97/312/71 96/311/71
f 98/318/72 101/317/72 100/316/72 97/315/72
f 101/322/73 103/321/73 102/320/73 100/319/73
f 103/326/74 105/325/74 104/324/74 102/323/74
f 105/330/75 107/329/75 106/328/75 104/327/75
f 107/334/76 109/333/76 108/332/76 106/331/76
f 109/338/77 111/337/77 110/336/77 108/335/77
f 111/342/78 113/341/78 112/340/78 110/339/78
f 113/346/79 115/345/79 114/344/79 112/343/79
f 115/350/80 117/349/80 116/348/80 114/347/80
f 117/354/81 119/353/81 118/352/81 116/351/81
f 119/358/82 99/357/82 96/356/82 118/355/82
f 96/370/83 97/369/83 100/368/83 102/367/83 104/366/83 106/365/83 108/364/83 110/363/83 112/362/83 114/361/83 116/360/83 118/359/83
f 119/382/84 117/381/84 115/380/84 113/379/84 111/378/84 109/377/84 107/376/84 105/375/84 103/374/84 101/373/84 98/372/84 99/371/84
o group1996890065
g mesh1996890065
usemtl mat22
f 123/386/85 122/385/85 121/384/85 120/383/85
f 127/390/86 126/389/86 125/388/86 124/387/86
f 121/394/87 127/393/87 124/392/87 120/391/87
f 125/398/88 126/397/88 122/396/88 123/395/88
f 124/402/89 125/401/89 123/400/89 120/399/89
f 122/406/90 126/405/90 127/404/90 121/403/90
o group119083348
g mesh119083348
usemtl mat23
f 4/4/1 3/3/1 2/2/1 1/1/1
f 3/8/2 6/7/2 5/6/2 2/5/2
f 6/12/3 8/11/3 7/10/3 5/9/3
f 8/16/4 10/15/4 9/14/4 7/13/4
f 10/20/5 12/19/5 11/18/5 9/17/5
f 12/24/6 14/23/6 13/22/6 11/21/6
f 14/28/7 16/27/7 15/26/7 13/25/7
f 16/32/8 18/31/8 17/30/8 15/29/8
f 18/36/9 20/35/9 19/34/9 17/33/9
f 20/40/10 4/39/10 1/38/10 19/37/10
f 1/44/11 21/43/11 17/42/11 19/41/11
f 20/54/12 18/53/12 16/52/12 14/51/12 12/50/12 10/49/12 8/48/12 6/47/12 3/46/12 4/45/12
f 22/58/13 5/57/13 7/56/13 9/55/13
f 23/62/14 1/61/14 2/60/14 5/59/14
f 21/66/15 25/65/15 24/64/15 17/63/15
f 24/70/16 13/69/16 15/68/16 17/67/16
f 26/74/17 9/73/17 11/72/17 13/71/17
f 27/78/18 21/77/18 1/76/18 23/75/18
f 28/82/19 23/81/19 5/80/19 22/79/19
f 29/86/20 22/85/20 9/84/20 26/83/20
f 30/90/21 26/89/21 13/88/21 24/87/21
f 25/93/22 30/92/22 24/91/22
f 29/96/23 26/95/23 30/94/23
f 28/99/24 22/98/24 29/97/24
f 27/102/25 23/101/25 28/100/25
f 25/105/26 21/104/26 27/103/26
f 32/109/27 31/108/27 29/107/27 30/106/27
f 31/113/28 33/112/28 28/111/28 29/110/28
f 33/117/29 34/116/29 27/115/29 28/114/29
f 34/121/30 35/120/30 25/119/30 27/118/30
f 35/125/31 32/124/31 30/123/31 25/122/31
f 35/130/32 34/129/32 33/128/32 31/127/32 32/126/32
o group603176352
g mesh603176352
usemtl mat23
f 39/134/33 38/133/33 37/132/33 36/131/33
f 38/138/34 41/137/34 40/136/34 37/135/34
f 41/142/35 43/141/35 42/140/35 40/139/35
f 43/146/36 45/145/36 44/144/36 42/143/36
f 45/150/37 47/149/37 46/148/37 44/147/37
f 47/154/38 49/153/38 48/152/38 46/151/38
f 49/158/39 51/157/39 50/156/39 48/155/39
f 51/162/40 53/161/40 52/160/40 50/159/40
f 53/166/41 55/165/41 54/164/41 52/163/41
f 55/170/42 39/169/42 36/168/42 54/167/42
f 36/180/43 37/179/43 40/178/43 42/177/43 44/176/43 46/175/43 48/174/43 50/173/43 52/172/43 54/171/43
f 55/190/44 53/189/44 51/188/44 49/187/44 47/186/44 45/185/44 43/184/44 41/183/44 38/182/44 39/181/44
o group910996737
g mesh910996737
usemtl mat22
f 59/194/45 58/193/45 57/192/45 56/191/45
f 58/198/46 61/197/46 60/196/46 57/195/46
f 61/202/47 63/201/47 62/200/47 60/199/47
f 63/206/48 59/205/48 56/204/48 62/203/48
f 56/210/49 57/209/49 60/208/49 62/207/49
f 63/214/50 61/213/50 58/212/50 59/211/50
o group161448064
g mesh161448064
usemtl mat22
f 67/218/51 66/217/51 65/216/51 64/215/51
f 66/222/52 69/221/52 68/220/52 65/219/52
f 69/226/53 71/225/53 70/224/53 68/223/53
f 71/230/54 67/229/54 64/228/54 70/227/54
f 64/234/55 65/233/55 68/232/55 70/231/55
f 71/238/56 69/237/56 66/236/56 67/235/56
