# Exported using automatic converter by Erwin Coumans
mtllib /Users/aidancurtis/ComplexMotionPlanning/pulley/model.mtl
#object mesh603176352

v 0.041008 -0.027918 0.025764
v 0.041008 0.002984 0.025764
v 0.039335 0.002984 0.030476
v 0.039335 -0.027918 0.030476
v 0.041008 0.002984 0.025764
v 0.023892 0.027984 0.019685
v 0.022219 0.027984 0.024397
v 0.039335 0.002984 0.030476
v 0.023892 0.027984 0.019685
v -0.003802 0.037533 0.009849
v -0.005476 0.037533 0.014561
v 0.022219 0.027984 0.024397
v -0.003802 0.037533 0.009849
v -0.031496 0.027984 0.000013
v -0.033170 0.027984 0.004725
v -0.005476 0.037533 0.014561
v -0.031496 0.027984 0.000013
v -0.048612 0.002984 -0.006066
v -0.050286 0.002984 -0.001354
v -0.033170 0.027984 0.004725
v -0.048612 0.002984 -0.006066
v -0.048612 -0.027918 -0.006066
v -0.050286 -0.027918 -0.001354
v -0.050286 0.002984 -0.001354
v -0.048612 -0.027918 -0.006066
v -0.031496 -0.052918 0.000013
v -0.033170 -0.052918 0.004725
v -0.050286 -0.027918 -0.001354
v -0.031496 -0.052918 0.000013
v -0.003802 -0.062467 0.009849
v -0.005476 -0.062467 0.014561
v -0.033170 -0.052918 0.004725
v -0.003802 -0.062467 0.009849
v 0.023892 -0.052918 0.019685
v 0.022219 -0.052918 0.024397
v -0.005476 -0.062467 0.014561
v 0.023892 -0.052918 0.019685
v 0.041008 -0.027918 0.025764
v 0.039335 -0.027918 0.030476
v 0.022219 -0.052918 0.024397
v 0.039335 -0.027918 0.030476
v 0.039335 0.002984 0.030476
v 0.022219 0.027984 0.024397
v -0.005476 0.037533 0.014561
v -0.033170 0.027984 0.004725
v -0.050286 0.002984 -0.001354
v -0.050286 -0.027918 -0.001354
v -0.033170 -0.052918 0.004725
v -0.005476 -0.062467 0.014561
v 0.022219 -0.052918 0.024397
v 0.023892 -0.052918 0.019685
v -0.003802 -0.062467 0.009849
v -0.031496 -0.052918 0.000013
v -0.048612 -0.027918 -0.006066
v -0.048612 0.002984 -0.006066
v -0.031496 0.027984 0.000013
v -0.003802 0.037533 0.009849
v 0.023892 0.027984 0.019685
v 0.041008 0.002984 0.025764
v 0.041008 -0.027918 0.025764
usemtl mat23

vn 0.942330 -0.000000 0.334684
vn 0.942330 -0.000000 0.334684
vn 0.942330 -0.000000 0.334684
vn 0.942330 -0.000000 0.334684
vn 0.762361 0.587785 0.270765
vn 0.762361 0.587785 0.270765
vn 0.762361 0.587785 0.270765
vn 0.762361 0.587785 0.270765
vn 0.291196 0.951056 0.103423
vn 0.291196 0.951056 0.103423
vn 0.291196 0.951056 0.103423
vn 0.291196 0.951056 0.103423
vn -0.291196 0.951056 -0.103423
vn -0.291196 0.951056 -0.103423
vn -0.291196 0.951056 -0.103423
vn -0.291196 0.951056 -0.103423
vn -0.762361 0.587785 -0.270765
vn -0.762361 0.587785 -0.270765
vn -0.762361 0.587785 -0.270765
vn -0.762361 0.587785 -0.270765
vn -0.942330 0.000000 -0.334684
vn -0.942330 0.000000 -0.334684
vn -0.942330 0.000000 -0.334684
vn -0.942330 0.000000 -0.334684
vn -0.762362 -0.587785 -0.270765
vn -0.762362 -0.587785 -0.270765
vn -0.762362 -0.587785 -0.270765
vn -0.762362 -0.587785 -0.270765
vn -0.291196 -0.951057 -0.103423
vn -0.291196 -0.951057 -0.103423
vn -0.291196 -0.951057 -0.103423
vn -0.291196 -0.951057 -0.103423
vn 0.291196 -0.951056 0.103423
vn 0.291196 -0.951056 0.103423
vn 0.291196 -0.951056 0.103423
vn 0.291196 -0.951056 0.103423
vn 0.762361 -0.587785 0.270765
vn 0.762361 -0.587785 0.270765
vn 0.762361 -0.587785 0.270765
vn 0.762361 -0.587785 0.270765
vn -0.334684 -0.000000 0.942330
vn -0.334684 -0.000000 0.942330
vn -0.334684 -0.000000 0.942330
vn -0.334684 -0.000000 0.942330
vn -0.334684 -0.000000 0.942330
vn -0.334684 -0.000000 0.942330
vn -0.334684 -0.000000 0.942330
vn -0.334684 -0.000000 0.942330
vn -0.334684 -0.000000 0.942330
vn -0.334684 -0.000000 0.942330
vn 0.334684 0.000000 -0.942330
vn 0.334684 0.000000 -0.942330
vn 0.334684 0.000000 -0.942330
vn 0.334684 0.000000 -0.942330
vn 0.334684 0.000000 -0.942330
vn 0.334684 0.000000 -0.942330
vn 0.334684 0.000000 -0.942330
vn 0.334684 0.000000 -0.942330
vn 0.334684 0.000000 -0.942330
vn 0.334684 0.000000 -0.942330

vt 0.005171 -0.121907
vt 0.007650 -0.120061
vt 0.007948 -0.120462
vt 0.005470 -0.122308
vt -0.199302 -0.078059
vt -0.196233 -0.078421
vt -0.196292 -0.078918
vt -0.199360 -0.078556
vt -0.242249 0.088540
vt -0.239993 0.086429
vt -0.240334 0.086064
vt -0.242591 0.088175
vt -0.196067 0.100522
vt -0.194267 0.098010
vt -0.194674 0.097719
vt -0.196473 0.100231
vt -0.128798 0.003150
vt -0.126935 0.000684
vt -0.127334 0.000383
vt -0.129197 0.002848
vt -0.007649 -0.120061
vt -0.005171 -0.121907
vt -0.005470 -0.122308
vt -0.007948 -0.120462
vt 0.196233 -0.078421
vt 0.199302 -0.078059
vt 0.199360 -0.078556
vt 0.196292 -0.078918
vt 0.239992 0.086429
vt 0.242249 0.088540
vt 0.242591 0.088175
vt 0.240334 0.086064
vt 0.194267 0.098010
vt 0.196067 0.100522
vt 0.196473 0.100231
vt 0.194674 0.097719
vt 0.126935 0.000684
vt 0.128798 0.003150
vt 0.129197 0.002848
vt 0.127334 0.000383
vt -0.178612 0.161676
vt -0.175971 0.163281
vt -0.172891 0.163027
vt -0.170549 0.161011
vt -0.169839 0.158004
vt -0.171032 0.155153
vt -0.173672 0.153548
vt -0.176752 0.153802
vt -0.179094 0.155818
vt -0.179805 0.158826
vt 0.179805 0.158826
vt 0.179094 0.155818
vt 0.176752 0.153802
vt 0.173672 0.153548
vt 0.171032 0.155153
vt 0.169839 0.158004
vt 0.170549 0.161011
vt 0.172891 0.163027
vt 0.175971 0.163281
vt 0.178612 0.161676
s off
f 1/1/1 2/2/2 3/3/3
f 1/1/1 3/3/3 4/4/4
f 5/5/5 6/6/6 7/7/7
f 5/5/5 7/7/7 8/8/8
f 9/9/9 10/10/10 11/11/11
f 9/9/9 11/11/11 12/12/12
f 13/13/13 14/14/14 15/15/15
f 13/13/13 15/15/15 16/16/16
f 17/17/17 18/18/18 19/19/19
f 17/17/17 19/19/19 20/20/20
f 21/21/21 22/22/22 23/23/23
f 21/21/21 23/23/23 24/24/24
f 25/25/25 26/26/26 27/27/27
f 25/25/25 27/27/27 28/28/28
f 29/29/29 30/30/30 31/31/31
f 29/29/29 31/31/31 32/32/32
f 33/33/33 34/34/34 35/35/35
f 33/33/33 35/35/35 36/36/36
f 37/37/37 38/38/38 39/39/39
f 37/37/37 39/39/39 40/40/40
f 41/41/41 42/42/42 43/43/43
f 41/41/41 43/43/43 44/44/44
f 41/41/41 44/44/44 45/45/45
f 41/41/41 45/45/45 46/46/46
f 41/41/41 46/46/46 47/47/47
f 41/41/41 47/47/47 48/48/48
f 41/41/41 48/48/48 49/49/49
f 41/41/41 49/49/49 50/50/50
f 51/51/51 52/52/52 53/53/53
f 51/51/51 53/53/53 54/54/54
f 51/51/51 54/54/54 55/55/55
f 51/51/51 55/55/55 56/56/56
f 51/51/51 56/56/56 57/57/57
f 51/51/51 57/57/57 58/58/58
f 51/51/51 58/58/58 59/59/59
f 51/51/51 59/59/59 60/60/60
