# Exported using automatic converter by Erwin Coumans
mtllib /Users/aidancurtis/ComplexMotionPlanning/pulley/model.mtl
#object mesh910996737

v 0.018770 0.074882 0.018904
v -0.021001 0.075887 0.004166
v -0.022738 0.075899 0.008854
v 0.017033 0.074894 0.023593
v -0.021001 0.075887 0.004166
v -0.023588 -0.036257 0.003499
v -0.025326 -0.036245 0.008188
v -0.022738 0.075899 0.008854
v -0.023588 -0.036257 0.003499
v 0.016183 -0.037262 0.018238
v 0.014446 -0.037250 0.022926
v -0.025326 -0.036245 0.008188
v 0.016183 -0.037262 0.018238
v 0.018770 0.074882 0.018904
v 0.017033 0.074894 0.023593
v 0.014446 -0.037250 0.022926
v 0.017033 0.074894 0.023593
v -0.022738 0.075899 0.008854
v -0.025326 -0.036245 0.008188
v 0.014446 -0.037250 0.022926
v 0.016183 -0.037262 0.018238
v -0.023588 -0.036257 0.003499
v -0.021001 0.075887 0.004166
v 0.018770 0.074882 0.018904
usemtl mat22

vn 0.023066 0.999716 0.005941
vn 0.023066 0.999716 0.005941
vn 0.023066 0.999716 0.005941
vn 0.023066 0.999716 0.005941
vn -0.937424 0.023694 -0.347384
vn -0.937424 0.023694 -0.347384
vn -0.937424 0.023694 -0.347384
vn -0.937424 0.023694 -0.347384
vn -0.023066 -0.999716 -0.005943
vn -0.023066 -0.999716 -0.005943
vn -0.023066 -0.999716 -0.005943
vn -0.023066 -0.999716 -0.005943
vn 0.937423 -0.023693 0.347385
vn 0.937423 -0.023693 0.347385
vn 0.937423 -0.023693 0.347385
vn 0.937423 -0.023693 0.347385
vn -0.347428 0.002443 0.937703
vn -0.347428 0.002443 0.937703
vn -0.347428 0.002443 0.937703
vn -0.347428 0.002443 0.937703
vn 0.347428 -0.002442 -0.937703
vn 0.347428 -0.002442 -0.937703
vn 0.347428 -0.002442 -0.937703
vn 0.347428 -0.002442 -0.937703

vt -0.224207 0.112967
vt -0.221460 0.109734
vt -0.221841 0.109410
vt -0.224588 0.112643
vt -0.017107 -0.109909
vt -0.008196 -0.116723
vt -0.008500 -0.117120
vt -0.017411 -0.110306
vt 0.221460 0.109734
vt 0.224208 0.112967
vt 0.224589 0.112643
vt 0.221841 0.109410
vt 0.008196 -0.116723
vt 0.017107 -0.109909
vt 0.017410 -0.110306
vt 0.008499 -0.117120
vt -0.170594 0.164954
vt -0.168283 0.161397
vt -0.177689 0.155285
vt -0.180001 0.158842
vt 0.180001 0.158842
vt 0.177689 0.155285
vt 0.168283 0.161397
vt 0.170594 0.164954
s off
f 1/1/1 2/2/2 3/3/3
f 1/1/1 3/3/3 4/4/4
f 5/5/5 6/6/6 7/7/7
f 5/5/5 7/7/7 8/8/8
f 9/9/9 10/10/10 11/11/11
f 9/9/9 11/11/11 12/12/12
f 13/13/13 14/14/14 15/15/15
f 13/13/13 15/15/15 16/16/16
f 17/17/17 18/18/18 19/19/19
f 17/17/17 19/19/19 20/20/20
f 21/21/21 22/22/22 23/23/23
f 21/21/21 23/23/23 24/24/24
