# Exported using automatic converter by Erwin Coumans
mtllib /Users/aidancurtis/ComplexMotionPlanning/pulley/model.mtl
#object mesh161448064

v -0.019107 0.079213 -0.016827
v 0.020992 0.079493 -0.002972
v 0.022624 0.079531 -0.007697
v -0.017475 0.079251 -0.021553
v 0.020992 0.079493 -0.002972
v 0.021974 -0.032924 -0.003538
v 0.023607 -0.032886 -0.008264
v 0.022624 0.079531 -0.007697
v 0.021974 -0.032924 -0.003538
v -0.018125 -0.033205 -0.017394
v -0.016492 -0.033167 -0.022120
v 0.023607 -0.032886 -0.008264
v -0.018125 -0.033205 -0.017394
v -0.019107 0.079213 -0.016827
v -0.017475 0.079251 -0.021553
v -0.016492 -0.033167 -0.022120
v -0.017475 0.079251 -0.021553
v 0.022624 0.079531 -0.007697
v 0.023607 -0.032886 -0.008264
v -0.016492 -0.033167 -0.022120
v -0.018125 -0.033205 -0.017394
v 0.021974 -0.032924 -0.003538
v 0.020992 0.079493 -0.002972
v -0.019107 0.079213 -0.016827
usemtl mat22

vn -0.008737 0.999949 0.005041
vn -0.008737 0.999949 0.005041
vn -0.008737 0.999949 0.005041
vn -0.008737 0.999949 0.005041
vn 0.945143 0.006612 0.326590
vn 0.945143 0.006612 0.326590
vn 0.945143 0.006612 0.326590
vn 0.945143 0.006612 0.326590
vn 0.008736 -0.999949 -0.005037
vn 0.008736 -0.999949 -0.005037
vn 0.008736 -0.999949 -0.005037
vn 0.008736 -0.999949 -0.005037
vn -0.945143 -0.006611 -0.326590
vn -0.945143 -0.006611 -0.326590
vn -0.945143 -0.006611 -0.326590
vn -0.945143 -0.006611 -0.326590
vn 0.326537 0.007617 -0.945154
vn 0.326537 0.007617 -0.945154
vn 0.326537 0.007617 -0.945154
vn 0.326537 0.007617 -0.945154
vn -0.326537 -0.007616 0.945154
vn -0.326537 -0.007616 0.945154
vn -0.326537 -0.007616 0.945154
vn -0.326537 -0.007616 0.945154

vt -0.218285 0.110190
vt -0.220941 0.113498
vt -0.220551 0.113811
vt -0.217895 0.110503
vt 0.012505 -0.116320
vt 0.003437 -0.122965
vt 0.003141 -0.122562
vt 0.012209 -0.115917
vt 0.220940 0.113499
vt 0.218284 0.110190
vt 0.217894 0.110504
vt 0.220551 0.113812
vt -0.003437 -0.122965
vt -0.012505 -0.116320
vt -0.012209 -0.115917
vt -0.003141 -0.122562
vt 0.163444 0.162089
vt 0.165596 0.165746
vt 0.175285 0.160045
vt 0.173134 0.156388
vt -0.173134 0.156388
vt -0.175286 0.160045
vt -0.165596 0.165746
vt -0.163445 0.162089
s off
f 1/1/1 2/2/2 3/3/3
f 1/1/1 3/3/3 4/4/4
f 5/5/5 6/6/6 7/7/7
f 5/5/5 7/7/7 8/8/8
f 9/9/9 10/10/10 11/11/11
f 9/9/9 11/11/11 12/12/12
f 13/13/13 14/14/14 15/15/15
f 13/13/13 15/15/15 16/16/16
f 17/17/17 18/18/18 19/19/19
f 17/17/17 19/19/19 20/20/20
f 21/21/21 22/22/22 23/23/23
f 21/21/21 23/23/23 24/24/24
