# Exported using automatic converter by Erwin Coumans
mtllib /Users/aidancurtis/ComplexMotionPlanning/pulley/model.mtl
#object mesh1996890065

v -0.026209 0.084623 -0.038762
v 0.051311 0.088527 -0.010909
v 0.052194 0.068549 -0.010565
v -0.025327 0.064646 -0.038418
v 0.034440 0.068617 0.038838
v 0.033558 0.088594 0.038493
v -0.043963 0.084691 0.010640
v -0.043081 0.064713 0.010984
v 0.052194 0.068549 -0.010565
v 0.034440 0.068617 0.038838
v -0.043081 0.064713 0.010984
v -0.025327 0.064646 -0.038418
v -0.043963 0.084691 0.010640
v 0.033558 0.088594 0.038493
v 0.051311 0.088527 -0.010909
v -0.026209 0.084623 -0.038762
v -0.043081 0.064713 0.010984
v -0.043963 0.084691 0.010640
v -0.026209 0.084623 -0.038762
v -0.025327 0.064646 -0.038418
v 0.051311 0.088527 -0.010909
v 0.033558 0.088594 0.038493
v 0.034440 0.068617 0.038838
v 0.052194 0.068549 -0.010565
usemtl mat22

vn 0.338194 -0.001283 -0.941075
vn 0.338194 -0.001283 -0.941075
vn 0.338194 -0.001283 -0.941075
vn 0.338194 -0.001283 -0.941075
vn -0.338194 0.001283 0.941075
vn -0.338194 0.001283 0.941075
vn -0.338194 0.001283 0.941075
vn -0.338194 0.001283 0.941075
vn 0.044112 -0.998878 0.017214
vn 0.044112 -0.998878 0.017214
vn 0.044112 -0.998878 0.017214
vn 0.044112 -0.998878 0.017214
vn -0.044112 0.998878 -0.017214
vn -0.044112 0.998878 -0.017214
vn -0.044112 0.998878 -0.017214
vn -0.044112 0.998878 -0.017214
vn -0.940042 -0.047335 -0.337759
vn -0.940042 -0.047335 -0.337759
vn -0.940042 -0.047335 -0.337759
vn -0.940042 -0.047335 -0.337759
vn 0.940042 0.047335 0.337759
vn 0.940042 0.047335 0.337759
vn 0.940042 0.047335 0.337759
vn 0.940042 0.047335 0.337759

vt 0.165216 0.160155
vt 0.169176 0.167389
vt 0.170930 0.166429
vt 0.166970 0.159195
vt -0.170930 0.166429
vt -0.169176 0.167389
vt -0.165216 0.160155
vt -0.166970 0.159195
vt 0.217455 0.118168
vt 0.221556 0.114891
vt 0.216409 0.108449
vt 0.212307 0.111726
vt -0.216409 0.108449
vt -0.221556 0.114891
vt -0.217455 0.118168
vt -0.212307 0.111726
vt 0.000484 -0.123204
vt -0.001166 -0.122074
vt 0.001801 -0.117743
vt 0.003451 -0.118874
vt -0.001801 -0.117743
vt 0.001166 -0.122074
vt -0.000484 -0.123204
vt -0.003451 -0.118874
s off
f 1/1/1 2/2/2 3/3/3
f 1/1/1 3/3/3 4/4/4
f 5/5/5 6/6/6 7/7/7
f 5/5/5 7/7/7 8/8/8
f 9/9/9 10/10/10 11/11/11
f 9/9/9 11/11/11 12/12/12
f 13/13/13 14/14/14 15/15/15
f 13/13/13 15/15/15 16/16/16
f 17/17/17 18/18/18 19/19/19
f 17/17/17 19/19/19 20/20/20
f 21/21/21 22/22/22 23/23/23
f 21/21/21 23/23/23 24/24/24
