# Exported using automatic converter by Erwin Coumans
mtllib /Users/aidancurtis/ComplexMotionPlanning/pulley/model.mtl
#object mesh729138149

v -0.003235 0.002301 0.006225
v 0.003703 -0.000176 0.008680
v 0.013968 0.000648 -0.019498
v 0.007030 0.003125 -0.021953
v 0.003703 -0.000176 0.008680
v 0.008581 -0.005999 0.010286
v 0.018846 -0.005175 -0.017891
v 0.013968 0.000648 -0.019498
v 0.008581 -0.005999 0.010286
v 0.010093 -0.013608 0.010615
v 0.020358 -0.012784 -0.017562
v 0.018846 -0.005175 -0.017891
v 0.010093 -0.013608 0.010615
v 0.007834 -0.020963 0.009577
v 0.018099 -0.020140 -0.018600
v 0.020358 -0.012784 -0.017562
v 0.007834 -0.020963 0.009577
v 0.002409 -0.026095 0.007451
v 0.012674 -0.025272 -0.020727
v 0.018099 -0.020140 -0.018600
v 0.002409 -0.026095 0.007451
v -0.004728 -0.027628 0.004806
v 0.005537 -0.026804 -0.023371
v 0.012674 -0.025272 -0.020727
v -0.004728 -0.027628 0.004806
v -0.011665 -0.025151 0.002351
v -0.001401 -0.024327 -0.025826
v 0.005537 -0.026804 -0.023371
v -0.011665 -0.025151 0.002351
v -0.016544 -0.019328 0.000744
v -0.006279 -0.018505 -0.027433
v -0.001401 -0.024327 -0.025826
v -0.016544 -0.019328 0.000744
v -0.018056 -0.011719 0.000415
v -0.007791 -0.010896 -0.027762
v -0.006279 -0.018505 -0.027433
v -0.018056 -0.011719 0.000415
v -0.015797 -0.004364 0.001453
v -0.005532 -0.003540 -0.026724
v -0.007791 -0.010896 -0.027762
v -0.015797 -0.004364 0.001453
v -0.010372 0.000768 0.003580
v -0.000107 0.001592 -0.024598
v -0.005532 -0.003540 -0.026724
v -0.010372 0.000768 0.003580
v -0.003235 0.002301 0.006225
v 0.007030 0.003125 -0.021953
v -0.000107 0.001592 -0.024598
v 0.007030 0.003125 -0.021953
v 0.013968 0.000648 -0.019498
v 0.018846 -0.005175 -0.017891
v 0.020358 -0.012784 -0.017562
v 0.018099 -0.020140 -0.018600
v 0.012674 -0.025272 -0.020727
v 0.005537 -0.026804 -0.023371
v -0.001401 -0.024327 -0.025826
v -0.006279 -0.018505 -0.027433
v -0.007791 -0.010896 -0.027762
v -0.005532 -0.003540 -0.026724
v -0.000107 0.001592 -0.024598
v -0.010372 0.000768 0.003580
v -0.015797 -0.004364 0.001453
v -0.018056 -0.011719 0.000415
v -0.016544 -0.019328 0.000744
v -0.011665 -0.025151 0.002351
v -0.004728 -0.027628 0.004806
v 0.002409 -0.026095 0.007451
v 0.007834 -0.020963 0.009577
v 0.010093 -0.013608 0.010615
v 0.008581 -0.005999 0.010286
v 0.003703 -0.000176 0.008680
v -0.003235 0.002301 0.006225
usemtl mat22

vn 0.290941 0.947355 0.133683
vn 0.290941 0.947355 0.133683
vn 0.290941 0.947355 0.133683
vn 0.290941 0.947355 0.133683
vn 0.698695 0.660932 0.273853
vn 0.698695 0.660932 0.273853
vn 0.698695 0.660932 0.273853
vn 0.698695 0.660932 0.273853
vn 0.919234 0.197411 0.340644
vn 0.919234 0.197411 0.340644
vn 0.919234 0.197411 0.340644
vn 0.919234 0.197411 0.340644
vn 0.893465 -0.319005 0.316160
vn 0.893465 -0.319005 0.316160
vn 0.893465 -0.319005 0.316160
vn 0.893465 -0.319005 0.316160
vn 0.628293 -0.749944 0.206961
vn 0.628293 -0.749944 0.206961
vn 0.628293 -0.749944 0.206961
vn 0.628293 -0.749944 0.206961
vn 0.194770 -0.979936 0.042307
vn 0.194770 -0.979936 0.042307
vn 0.194770 -0.979936 0.042307
vn 0.194770 -0.979936 0.042307
vn -0.290941 -0.947355 -0.133683
vn -0.290941 -0.947355 -0.133683
vn -0.290941 -0.947355 -0.133683
vn -0.290941 -0.947355 -0.133683
vn -0.698695 -0.660931 -0.273853
vn -0.698695 -0.660931 -0.273853
vn -0.698695 -0.660931 -0.273853
vn -0.698695 -0.660931 -0.273853
vn -0.919234 -0.197411 -0.340644
vn -0.919234 -0.197411 -0.340644
vn -0.919234 -0.197411 -0.340644
vn -0.919234 -0.197411 -0.340644
vn -0.893465 0.319005 -0.316160
vn -0.893465 0.319005 -0.316160
vn -0.893465 0.319005 -0.316160
vn -0.893465 0.319005 -0.316160
vn -0.628292 0.749944 -0.206961
vn -0.628292 0.749944 -0.206961
vn -0.628292 0.749944 -0.206961
vn -0.628292 0.749944 -0.206961
vn -0.194770 0.979936 -0.042307
vn -0.194770 0.979936 -0.042307
vn -0.194770 0.979936 -0.042307
vn -0.194770 0.979936 -0.042307
vn 0.342161 0.027457 -0.939240
vn 0.342161 0.027457 -0.939240
vn 0.342161 0.027457 -0.939240
vn 0.342161 0.027457 -0.939240
vn 0.342161 0.027457 -0.939240
vn 0.342161 0.027457 -0.939240
vn 0.342161 0.027457 -0.939240
vn 0.342161 0.027457 -0.939240
vn 0.342161 0.027457 -0.939240
vn 0.342161 0.027457 -0.939240
vn 0.342161 0.027457 -0.939240
vn 0.342161 0.027457 -0.939240
vn -0.342161 -0.027457 0.939240
vn -0.342161 -0.027457 0.939240
vn -0.342161 -0.027457 0.939240
vn -0.342161 -0.027457 0.939240
vn -0.342161 -0.027457 0.939240
vn -0.342161 -0.027457 0.939240
vn -0.342161 -0.027457 0.939240
vn -0.342161 -0.027457 0.939240
vn -0.342161 -0.027457 0.939240
vn -0.342161 -0.027457 0.939240
vn -0.342161 -0.027457 0.939240
vn -0.342161 -0.027457 0.939240

vt -0.242021 0.082416
vt -0.242599 0.082935
vt -0.240594 0.085167
vt -0.240016 0.084648
vt -0.216783 -0.047498
vt -0.217535 -0.047303
vt -0.216781 -0.044399
vt -0.216030 -0.044594
vt -0.056998 -0.135664
vt -0.057706 -0.135982
vt -0.058935 -0.133245
vt -0.058226 -0.132928
vt 0.080424 -0.061279
vt 0.079885 -0.061838
vt 0.077725 -0.059756
vt 0.078264 -0.059197
vt 0.156904 0.042884
vt 0.156441 0.042260
vt 0.154032 0.044049
vt 0.154495 0.044672
vt 0.207785 0.104951
vt 0.207310 0.104336
vt 0.204935 0.106169
vt 0.205409 0.106783
vt 0.242599 0.082935
vt 0.242021 0.082416
vt 0.240016 0.084648
vt 0.240594 0.085166
vt 0.217535 -0.047303
vt 0.216783 -0.047498
vt 0.216030 -0.044594
vt 0.216781 -0.044399
vt 0.057706 -0.135982
vt 0.056998 -0.135664
vt 0.058226 -0.132928
vt 0.058935 -0.133245
vt -0.079884 -0.061838
vt -0.080423 -0.061279
vt -0.078264 -0.059197
vt -0.077725 -0.059756
vt -0.156441 0.042260
vt -0.156904 0.042884
vt -0.154495 0.044672
vt -0.154032 0.044049
vt -0.207310 0.104336
vt -0.207785 0.104951
vt -0.205409 0.106783
vt -0.204935 0.106169
vt 0.169340 0.163610
vt 0.169926 0.164118
vt 0.170689 0.164265
vt 0.171423 0.164011
vt 0.171931 0.163425
vt 0.172078 0.162662
vt 0.171824 0.161928
vt 0.171237 0.161420
vt 0.170474 0.161273
vt 0.169741 0.161527
vt 0.169232 0.162114
vt 0.169086 0.162876
vt -0.169086 0.162876
vt -0.169232 0.162114
vt -0.169741 0.161527
vt -0.170474 0.161273
vt -0.171237 0.161420
vt -0.171824 0.161928
vt -0.172078 0.162662
vt -0.171931 0.163425
vt -0.171423 0.164011
vt -0.170689 0.164265
vt -0.169926 0.164118
vt -0.169340 0.163610
s off
f 1/1/1 2/2/2 3/3/3
f 1/1/1 3/3/3 4/4/4
f 5/5/5 6/6/6 7/7/7
f 5/5/5 7/7/7 8/8/8
f 9/9/9 10/10/10 11/11/11
f 9/9/9 11/11/11 12/12/12
f 13/13/13 14/14/14 15/15/15
f 13/13/13 15/15/15 16/16/16
f 17/17/17 18/18/18 19/19/19
f 17/17/17 19/19/19 20/20/20
f 21/21/21 22/22/22 23/23/23
f 21/21/21 23/23/23 24/24/24
f 25/25/25 26/26/26 27/27/27
f 25/25/25 27/27/27 28/28/28
f 29/29/29 30/30/30 31/31/31
f 29/29/29 31/31/31 32/32/32
f 33/33/33 34/34/34 35/35/35
f 33/33/33 35/35/35 36/36/36
f 37/37/37 38/38/38 39/39/39
f 37/37/37 39/39/39 40/40/40
f 41/41/41 42/42/42 43/43/43
f 41/41/41 43/43/43 44/44/44
f 45/45/45 46/46/46 47/47/47
f 45/45/45 47/47/47 48/48/48
f 49/49/49 50/50/50 51/51/51
f 49/49/49 51/51/51 52/52/52
f 49/49/49 52/52/52 53/53/53
f 49/49/49 53/53/53 54/54/54
f 49/49/49 54/54/54 55/55/55
f 49/49/49 55/55/55 56/56/56
f 49/49/49 56/56/56 57/57/57
f 49/49/49 57/57/57 58/58/58
f 49/49/49 58/58/58 59/59/59
f 49/49/49 59/59/59 60/60/60
f 61/61/61 62/62/62 63/63/63
f 61/61/61 63/63/63 64/64/64
f 61/61/61 64/64/64 65/65/65
f 61/61/61 65/65/65 66/66/66
f 61/61/61 66/66/66 67/67/67
f 61/61/61 67/67/67 68/68/68
f 61/61/61 68/68/68 69/69/69
f 61/61/61 69/69/69 70/70/70
f 61/61/61 70/70/70 71/71/71
f 61/61/61 71/71/71 72/72/72
