# Exported using automatic converter by Erwin Coumans
mtllib /Users/aidancurtis/ComplexMotionPlanning/pulley/model.mtl
#object mesh119083348

v 0.048289 -0.026828 0.001646
v 0.048290 0.004074 0.001646
v 0.046616 0.004074 0.006358
v 0.046616 -0.026828 0.006358
v 0.048290 0.004074 0.001646
v 0.031173 0.029074 -0.004433
v 0.029500 0.029074 0.000279
v 0.046616 0.004074 0.006358
v 0.031173 0.029074 -0.004433
v 0.003479 0.038623 -0.014269
v 0.001806 0.038623 -0.009557
v 0.029500 0.029074 0.000279
v 0.003479 0.038623 -0.014269
v -0.024215 0.029074 -0.024105
v -0.025889 0.029074 -0.019393
v 0.001806 0.038623 -0.009557
v -0.024215 0.029074 -0.024105
v -0.041331 0.004074 -0.030184
v -0.043005 0.004074 -0.025472
v -0.025889 0.029074 -0.019393
v -0.041331 0.004074 -0.030184
v -0.041331 -0.026828 -0.030184
v -0.043005 -0.026828 -0.025472
v -0.043005 0.004074 -0.025472
v -0.041331 -0.026828 -0.030184
v -0.024215 -0.051828 -0.024105
v -0.025889 -0.051828 -0.019393
v -0.043005 -0.026828 -0.025472
v -0.024215 -0.051828 -0.024105
v 0.003479 -0.061377 -0.014269
v 0.001806 -0.061377 -0.009557
v -0.025889 -0.051828 -0.019393
v 0.003479 -0.061377 -0.014269
v 0.031173 -0.051828 -0.004433
v 0.029500 -0.051828 0.000279
v 0.001806 -0.061377 -0.009557
v 0.031173 -0.051828 -0.004433
v 0.048289 -0.026828 0.001646
v 0.046616 -0.026828 0.006358
v 0.029500 -0.051828 0.000279
v 0.046616 -0.026828 0.006358
v 0.024211 -0.044103 -0.001600
v 0.001806 -0.061377 -0.009557
v 0.029500 -0.051828 0.000279
v 0.031173 -0.051828 -0.004433
v 0.003479 -0.061377 -0.014269
v -0.024215 -0.051828 -0.024105
v -0.041331 -0.026828 -0.030184
v -0.041331 0.004074 -0.030184
v -0.024215 0.029074 -0.024105
v 0.003479 0.038623 -0.014269
v 0.031173 0.029074 -0.004433
v 0.048290 0.004074 0.001646
v 0.048289 -0.026828 0.001646
v 0.001806 0.029074 -0.009557
v 0.029500 0.029074 0.000279
v 0.001806 0.038623 -0.009557
v -0.025889 0.029074 -0.019393
v 0.038058 0.001123 0.003319
v 0.046616 -0.026828 0.006358
v 0.046616 0.004074 0.006358
v 0.029500 0.029074 0.000279
v 0.024211 -0.044103 -0.001600
v 0.001805 -0.044103 -0.009557
v -0.020600 -0.044103 -0.017515
v 0.001806 -0.061377 -0.009557
v -0.020600 -0.044103 -0.017515
v -0.043005 -0.026828 -0.025472
v -0.025889 -0.051828 -0.019393
v 0.001806 -0.061377 -0.009557
v -0.034447 0.001123 -0.022433
v -0.025889 0.029074 -0.019393
v -0.043005 0.004074 -0.025472
v -0.043005 -0.026828 -0.025472
v 0.031134 -0.021490 0.000859
v 0.024211 -0.044103 -0.001600
v 0.046616 -0.026828 0.006358
v 0.038058 0.001123 0.003319
v 0.019932 0.015098 -0.003119
v 0.038058 0.001123 0.003319
v 0.029500 0.029074 0.000279
v 0.001806 0.029074 -0.009557
v -0.016321 0.015098 -0.015995
v 0.001806 0.029074 -0.009557
v -0.025889 0.029074 -0.019393
v -0.034447 0.001123 -0.022433
v -0.027523 -0.021490 -0.019974
v -0.034447 0.001123 -0.022433
v -0.043005 -0.026828 -0.025472
v -0.020600 -0.044103 -0.017515
v 0.001805 -0.044103 -0.009557
v -0.027523 -0.021490 -0.019974
v -0.020600 -0.044103 -0.017515
v -0.016321 0.015098 -0.015995
v -0.034447 0.001123 -0.022433
v -0.027523 -0.021490 -0.019974
v 0.019932 0.015098 -0.003119
v 0.001806 0.029074 -0.009557
v -0.016321 0.015098 -0.015995
v 0.031134 -0.021490 0.000859
v 0.038058 0.001123 0.003319
v 0.019932 0.015098 -0.003119
v 0.001805 -0.044103 -0.009557
v 0.024211 -0.044103 -0.001600
v 0.031134 -0.021490 0.000859
v -0.034976 -0.021187 0.003039
v -0.023409 0.015301 0.006891
v -0.016321 0.015098 -0.015995
v -0.027523 -0.021490 -0.019974
v -0.023409 0.015301 0.006891
v 0.012714 0.014988 0.020120
v 0.019932 0.015098 -0.003119
v -0.016321 0.015098 -0.015995
v 0.012714 0.014988 0.020120
v 0.023474 -0.021694 0.024443
v 0.031134 -0.021490 0.000859
v 0.019932 0.015098 -0.003119
v 0.023474 -0.021694 0.024443
v -0.006001 -0.044051 0.013886
v 0.001805 -0.044103 -0.009557
v 0.031134 -0.021490 0.000859
v -0.006001 -0.044051 0.013886
v -0.034976 -0.021187 0.003039
v -0.027523 -0.021490 -0.019974
v 0.001805 -0.044103 -0.009557
v -0.006001 -0.044051 0.013886
v 0.023474 -0.021694 0.024443
v 0.012714 0.014988 0.020120
v -0.023409 0.015301 0.006891
v -0.034976 -0.021187 0.003039
usemtl mat23

vn 0.942330 -0.000000 0.334684
vn 0.942330 -0.000000 0.334684
vn 0.942330 -0.000000 0.334684
vn 0.942330 -0.000000 0.334684
vn 0.762361 0.587785 0.270765
vn 0.762361 0.587785 0.270765
vn 0.762361 0.587785 0.270765
vn 0.762361 0.587785 0.270765
vn 0.291196 0.951056 0.103423
vn 0.291196 0.951056 0.103423
vn 0.291196 0.951056 0.103423
vn 0.291196 0.951056 0.103423
vn -0.291196 0.951056 -0.103423
vn -0.291196 0.951056 -0.103423
vn -0.291196 0.951056 -0.103423
vn -0.291196 0.951056 -0.103423
vn -0.762361 0.587785 -0.270765
vn -0.762361 0.587785 -0.270765
vn -0.762361 0.587785 -0.270765
vn -0.762361 0.587785 -0.270765
vn -0.942330 0.000000 -0.334684
vn -0.942330 0.000000 -0.334684
vn -0.942330 0.000000 -0.334684
vn -0.942330 0.000000 -0.334684
vn -0.762362 -0.587785 -0.270765
vn -0.762362 -0.587785 -0.270765
vn -0.762362 -0.587785 -0.270765
vn -0.762362 -0.587785 -0.270765
vn -0.291196 -0.951057 -0.103423
vn -0.291196 -0.951057 -0.103423
vn -0.291196 -0.951057 -0.103423
vn -0.291196 -0.951057 -0.103423
vn 0.291196 -0.951056 0.103423
vn 0.291196 -0.951056 0.103423
vn 0.291196 -0.951056 0.103423
vn 0.291196 -0.951056 0.103423
vn 0.762361 -0.587785 0.270765
vn 0.762361 -0.587785 0.270765
vn 0.762361 -0.587785 0.270765
vn 0.762361 -0.587785 0.270765
vn -0.334685 0.000002 0.942330
vn -0.334685 0.000002 0.942330
vn -0.334685 0.000002 0.942330
vn -0.334685 0.000002 0.942330
vn 0.334684 0.000000 -0.942330
vn 0.334684 0.000000 -0.942330
vn 0.334684 0.000000 -0.942330
vn 0.334684 0.000000 -0.942330
vn 0.334684 0.000000 -0.942330
vn 0.334684 0.000000 -0.942330
vn 0.334684 0.000000 -0.942330
vn 0.334684 0.000000 -0.942330
vn 0.334684 0.000000 -0.942330
vn 0.334684 0.000000 -0.942330
vn -0.334684 -0.000002 0.942330
vn -0.334684 -0.000002 0.942330
vn -0.334684 -0.000002 0.942330
vn -0.334684 -0.000002 0.942330
vn -0.334684 -0.000000 0.942330
vn -0.334684 -0.000000 0.942330
vn -0.334684 -0.000000 0.942330
vn -0.334684 -0.000000 0.942330
vn -0.334683 -0.000002 0.942331
vn -0.334683 -0.000002 0.942331
vn -0.334683 -0.000002 0.942331
vn -0.334683 -0.000002 0.942331
vn -0.334687 -0.000005 0.942329
vn -0.334687 -0.000005 0.942329
vn -0.334687 -0.000005 0.942329
vn -0.334687 -0.000005 0.942329
vn -0.334679 -0.000002 0.942332
vn -0.334679 -0.000002 0.942332
vn -0.334679 -0.000002 0.942332
vn -0.334679 -0.000002 0.942332
vn -0.334686 0.000000 0.942330
vn -0.334686 0.000000 0.942330
vn -0.334686 0.000000 0.942330
vn -0.334686 0.000000 0.942330
vn -0.334683 0.000002 0.942331
vn -0.334683 0.000002 0.942331
vn -0.334683 0.000002 0.942331
vn -0.334683 0.000002 0.942331
vn -0.334685 -0.000001 0.942330
vn -0.334685 -0.000001 0.942330
vn -0.334685 -0.000001 0.942330
vn -0.334685 -0.000001 0.942330
vn -0.334686 0.000002 0.942330
vn -0.334686 0.000002 0.942330
vn -0.334686 0.000002 0.942330
vn -0.334686 0.000002 0.942330
vn -0.334683 0.000002 0.942331
vn -0.334683 0.000002 0.942331
vn -0.334683 0.000002 0.942331
vn -0.334688 0.000002 0.942329
vn -0.334688 0.000002 0.942329
vn -0.334688 0.000002 0.942329
vn -0.334685 0.000003 0.942330
vn -0.334685 0.000003 0.942330
vn -0.334685 0.000003 0.942330
vn -0.334683 -0.000002 0.942331
vn -0.334683 -0.000002 0.942331
vn -0.334683 -0.000002 0.942331
vn -0.334682 -0.000000 0.942331
vn -0.334682 -0.000000 0.942331
vn -0.334682 -0.000000 0.942331
vn -0.904438 0.312888 -0.289986
vn -0.904438 0.312888 -0.289986
vn -0.904438 0.312888 -0.289986
vn -0.904438 0.312888 -0.289986
vn 0.004549 0.999990 -0.000604
vn 0.004549 0.999990 -0.000604
vn 0.004549 0.999990 -0.000604
vn 0.004549 0.999990 -0.000604
vn 0.907105 0.304787 0.290284
vn 0.907105 0.304787 0.290284
vn 0.907105 0.304787 0.290284
vn 0.907105 0.304787 0.290284
vn 0.556144 -0.811298 0.180276
vn 0.556144 -0.811298 0.180276
vn 0.556144 -0.811298 0.180276
vn 0.556144 -0.811298 0.180276
vn -0.563685 -0.806362 -0.178995
vn -0.563685 -0.806362 -0.178995
vn -0.563685 -0.806362 -0.178995
vn -0.563685 -0.806362 -0.178995
vn -0.343787 0.009837 0.938996
vn -0.343787 0.009837 0.938996
vn -0.343787 0.009837 0.938996
vn -0.343787 0.009837 0.938996
vn -0.343787 0.009837 0.938996

vt 0.003756 -0.119824
vt 0.006234 -0.117978
vt 0.006532 -0.118379
vt 0.004054 -0.120225
vt -0.198849 -0.075579
vt -0.195780 -0.075941
vt -0.195839 -0.076437
vt -0.198907 -0.076076
vt -0.240421 0.090276
vt -0.238165 0.088165
vt -0.238506 0.087800
vt -0.240763 0.089911
vt -0.193974 0.101921
vt -0.192174 0.099409
vt -0.192581 0.099118
vt -0.194380 0.101630
vt -0.126801 0.004680
vt -0.124937 0.002215
vt -0.125336 0.001914
vt -0.127200 0.004379
vt -0.006234 -0.117978
vt -0.003755 -0.119824
vt -0.004054 -0.120225
vt -0.006532 -0.118379
vt 0.195780 -0.075941
vt 0.198849 -0.075579
vt 0.198908 -0.076076
vt 0.195839 -0.076437
vt 0.238165 0.088165
vt 0.240421 0.090276
vt 0.240763 0.089911
vt 0.238506 0.087800
vt 0.192174 0.099409
vt 0.193974 0.101921
vt 0.194380 0.101630
vt 0.192581 0.099118
vt 0.124937 0.002215
vt 0.126801 0.004680
vt 0.127200 0.004379
vt 0.125336 0.001914
vt -0.178456 0.161629
vt -0.178697 0.158700
vt -0.178939 0.155771
vt -0.179649 0.158779
vt 0.179649 0.158779
vt 0.178938 0.155771
vt 0.176596 0.153756
vt 0.173516 0.153502
vt 0.170876 0.155106
vt 0.169683 0.157957
vt 0.170393 0.160964
vt 0.172735 0.162980
vt 0.175815 0.163234
vt 0.178456 0.161629
vt -0.171209 0.160469
vt -0.172735 0.162980
vt -0.170392 0.160965
vt -0.169682 0.157957
vt -0.175595 0.162305
vt -0.178456 0.161629
vt -0.175815 0.163234
vt -0.172735 0.162980
vt -0.178696 0.158701
vt -0.177462 0.156669
vt -0.176227 0.154637
vt -0.178938 0.155772
vt -0.176227 0.154637
vt -0.173516 0.153502
vt -0.176596 0.153756
vt -0.178938 0.155772
vt -0.171598 0.155730
vt -0.169682 0.157957
vt -0.170875 0.155107
vt -0.173515 0.153502
vt -0.177146 0.160502
vt -0.178697 0.158700
vt -0.178456 0.161629
vt -0.175595 0.162305
vt -0.173402 0.161386
vt -0.175596 0.162304
vt -0.172735 0.162980
vt -0.171209 0.160468
vt -0.171404 0.158099
vt -0.171209 0.160469
vt -0.169683 0.157957
vt -0.171600 0.155729
vt -0.173914 0.155183
vt -0.171600 0.155729
vt -0.173517 0.153501
vt -0.176228 0.154636
vt -0.177463 0.156668
vt -0.173914 0.155183
vt -0.176228 0.154636
vt -0.171405 0.158099
vt -0.171600 0.155729
vt -0.173914 0.155183
vt -0.173403 0.161386
vt -0.171209 0.160468
vt -0.171405 0.158099
vt -0.177146 0.160503
vt -0.175595 0.162305
vt -0.173402 0.161387
vt -0.177462 0.156668
vt -0.178697 0.158700
vt -0.177146 0.160502
vt -0.084164 -0.067996
vt -0.086705 -0.065108
vt -0.084883 -0.063552
vt -0.082325 -0.066425
vt -0.220287 0.109936
vt -0.222749 0.112892
vt -0.220804 0.114354
vt -0.218371 0.111374
vt -0.088053 -0.144414
vt -0.091668 -0.145730
vt -0.092450 -0.143377
vt -0.088820 -0.142104
vt 0.169276 0.060164
vt 0.167067 0.057014
vt 0.165017 0.058393
vt 0.167218 0.061548
vt 0.245551 0.020299
vt 0.242173 0.018457
vt 0.240954 0.020546
vt 0.244306 0.022434
vt -0.180296 0.155340
vt -0.180047 0.159179
vt -0.176319 0.160129
vt -0.174264 0.156877
vt -0.176721 0.153917
s off
f 1/1/1 2/2/2 3/3/3
f 1/1/1 3/3/3 4/4/4
f 5/5/5 6/6/6 7/7/7
f 5/5/5 7/7/7 8/8/8
f 9/9/9 10/10/10 11/11/11
f 9/9/9 11/11/11 12/12/12
f 13/13/13 14/14/14 15/15/15
f 13/13/13 15/15/15 16/16/16
f 17/17/17 18/18/18 19/19/19
f 17/17/17 19/19/19 20/20/20
f 21/21/21 22/22/22 23/23/23
f 21/21/21 23/23/23 24/24/24
f 25/25/25 26/26/26 27/27/27
f 25/25/25 27/27/27 28/28/28
f 29/29/29 30/30/30 31/31/31
f 29/29/29 31/31/31 32/32/32
f 33/33/33 34/34/34 35/35/35
f 33/33/33 35/35/35 36/36/36
f 37/37/37 38/38/38 39/39/39
f 37/37/37 39/39/39 40/40/40
f 41/41/41 42/42/42 43/43/43
f 41/41/41 43/43/43 44/44/44
f 45/45/45 46/46/46 47/47/47
f 45/45/45 47/47/47 48/48/48
f 45/45/45 48/48/48 49/49/49
f 45/45/45 49/49/49 50/50/50
f 45/45/45 50/50/50 51/51/51
f 45/45/45 51/51/51 52/52/52
f 45/45/45 52/52/52 53/53/53
f 45/45/45 53/53/53 54/54/54
f 55/55/55 56/56/56 57/57/57
f 55/55/55 57/57/57 58/58/58
f 59/59/59 60/60/60 61/61/61
f 59/59/59 61/61/61 62/62/62
f 63/63/63 64/64/64 65/65/65
f 63/63/63 65/65/65 66/66/66
f 67/67/67 68/68/68 69/69/69
f 67/67/67 69/69/69 70/70/70
f 71/71/71 72/72/72 73/73/73
f 71/71/71 73/73/73 74/74/74
f 75/75/75 76/76/76 77/77/77
f 75/75/75 77/77/77 78/78/78
f 79/79/79 80/80/80 81/81/81
f 79/79/79 81/81/81 82/82/82
f 83/83/83 84/84/84 85/85/85
f 83/83/83 85/85/85 86/86/86
f 87/87/87 88/88/88 89/89/89
f 87/87/87 89/89/89 90/90/90
f 91/91/91 92/92/92 93/93/93
f 94/94/94 95/95/95 96/96/96
f 97/97/97 98/98/98 99/99/99
f 100/100/100 101/101/101 102/102/102
f 103/103/103 104/104/104 105/105/105
f 106/106/106 107/107/107 108/108/108
f 106/106/106 108/108/108 109/109/109
f 110/110/110 111/111/111 112/112/112
f 110/110/110 112/112/112 113/113/113
f 114/114/114 115/115/115 116/116/116
f 114/114/114 116/116/116 117/117/117
f 118/118/118 119/119/119 120/120/120
f 118/118/118 120/120/120 121/121/121
f 122/122/122 123/123/123 124/124/124
f 122/122/122 124/124/124 125/125/125
f 126/126/126 127/127/127 128/128/128
f 126/126/126 128/128/128 129/129/129
f 126/126/126 129/129/129 130/130/130
