# Alias OBJ Model File
# Exported from SketchUp, (c) 2000-2012 Trimble Navigation Limited
# File units = inches

mtllib bookshelf.mtl

g Mesh1 Model

usemtl Wood_Bamboo
v -3.55271e-18 0.218764 -0.0580394
vt -0.0488753 0.184222
vn -1 -1.11648e-32 2.31382e-16
v 9.87654e-18 0 -9.49668e-20
vt -7.9972e-20 -9.2859e-50
v 9.87654e-18 0.218764 -9.49668e-20
vt -7.9972e-20 0.184222
f 1/1/1 2/2/1 3/3/1

vn 1 1.11648e-32 -2.31382e-16
f 3/3/2 2/2/2 1/1/2

vt 8.31709e-18 0
vn 0 0 1
v 0.00446457 0.00446457 -9.49668e-20
vt 0.00375964 0.00375964
v 0.00446457 0.055249 -9.49668e-20
vt 0.00375964 0.0465255
v 0.00446457 0.108266 -9.49668e-20
vt 0.00375964 0.0911712
v 0.00446457 0.161282 -9.49668e-20
vt 0.00375964 0.135817
vt 8.31709e-18 0.184222
f 2/4/3 4/5/3 5/6/3 6/7/3 7/8/3 3/9/3 

vn -0 -0 -1
f 3/9/4 7/8/4 6/7/4 5/6/4 4/5/4 2/4/4 

v 0.00446457 0.161282 -0.0580394
vt 0.0488753 0.135817
vn 1 0 -0
vt 7.9972e-20 0.135817
vt 7.9972e-20 0.0911712
f 8/10/5 7/11/5 6/12/5

v 0.0584114 0.161282 1.87884e-21
vt 0.0491886 -1.58218e-21
vn 0 1 -0
vt 0.00375964 0.0488753
vt 0.00375964 7.9972e-20
f 9/13/6 8/14/6 7/15/6

vn -0 -1 0
f 7/15/7 8/14/7 9/13/7

v 0.00446457 0.206858 -0.0580394
vt 0.0488753 0.174196
f 7/11/5 8/10/5 10/16/5

vn -1 -0 0
f 10/16/8 8/10/8 7/11/8

f 6/12/8 7/11/8 8/10/8

v 0.00446457 0.108266 -0.0580394
vt 0.0488753 0.0911712
f 6/12/5 11/17/5 8/10/5

v 0.0561791 0.110498 -1.59531e-19
vt -1.34341e-19 0.0512776
vn -0.0431253 0.99907 -0
vt -0.0488753 0.00768792
vt -7.9972e-20 0.00768792
f 12/18/9 11/19/9 6/20/9

vn 0.0431253 -0.99907 0
f 6/20/10 11/19/10 12/18/10

vt 7.9972e-20 0.0465255
f 11/17/5 6/12/5 5/21/5

f 5/21/8 6/12/8 11/17/8

f 8/10/8 11/17/8 6/12/8

v 0.00446457 0.00446457 -0.0580394
vt -0.00375964 0.00375964
vn 0 0 -1
v 9.87654e-18 0 -0.0580394
vt -8.31709e-18 0
vt 2.99176e-18 0.184222
vt -0.00375964 0.135817
vt -0.00375964 0.0911712
v 0.00446457 0.055249 -0.0580394
vt -0.00375964 0.0465255
f 13/22/11 14/23/11 1/24/11 8/25/11 11/26/11 15/27/11 

v 0.0584114 0.00446457 -0.0580394
vt -0.0491886 0.00375964
v 0.114591 0 -0.0580394
vt -0.0964973 0
f 14/23/11 13/22/11 16/28/11 17/29/11 

vn -0 -0 1
f 17/29/12 16/28/12 13/22/12 14/23/12 

vt 0.0491886 0.0488753
f 16/30/6 13/14/6 4/15/6

f 4/15/7 13/14/7 16/30/7

vt 7.9972e-20 0.00375964
vt 0.0488753 0.00375964
vt 0.0488753 0.0465255
f 4/31/5 13/32/5 15/33/5

f 15/33/8 13/32/8 4/31/8

f 15/27/12 11/26/12 8/25/12 1/24/12 14/23/12 13/22/12 

f 5/21/5 15/33/5 11/17/5

v 0.0584114 0.055249 1.87884e-21
f 18/13/6 15/14/6 5/15/6

f 5/15/7 15/14/7 18/13/7

f 11/17/8 15/33/8 5/21/8

f 15/33/5 5/21/5 4/31/5

f 4/31/8 5/21/8 15/33/8

v 0.0561791 0.055249 -0.0580394
vt 0.0473087 0.0488753
f 15/14/6 18/13/6 19/34/6

f 19/34/7 18/13/7 15/14/7

v 0.110126 0.055249 -9.49668e-20
vt 0.0927377 7.9972e-20
f 20/35/6 19/34/6 18/13/6

f 18/13/7 19/34/7 20/35/7

vt 0.0470209 0.0455244
vn 0.999058 0.0201747 -0.0384253
v 0.0567311 0.0826016 -0.0293279
vt 0.0228428 0.0685629
vt -0.00189047 0.0455244
f 19/36/13 21/37/13 18/38/13

vn -0.999058 -0.0201747 0.0384253
f 18/38/14 21/37/14 19/36/14

vt 0.00096452 0.0445025
vn -0.998993 -0.0403634 0.0195927
vt 0.00092766 0.091066
vt -0.0237556 0.0675551
f 18/39/15 12/40/15 21/41/15

vn 0.998993 0.0403634 -0.0195927
f 21/41/16 12/40/16 18/39/16

v 0.0561791 0.109382 -0.0580394
vt -0.0488569 0.0911368
vn -0.999796 -0.0201894 0.000388258
vt -0.0246786 0.0685804
vt 1.83718e-05 0.0920769
f 22/42/17 21/43/17 12/44/17

vn 0.999796 0.0201894 -0.000388258
f 12/44/18 21/43/18 22/42/18

vt -0.047957 0.0921111
vn -0.999815 1.27984e-19 0.0192201
vt -0.047957 0.0465255
vt -0.0237744 0.0695593
f 22/45/19 19/46/19 21/47/19

vn 0.999815 -1.27984e-19 -0.0192201
f 21/47/20 19/46/20 22/45/20

vt -0.0389922 -0.0270607
vn -0.0215737 0.999582 -0.0192227
vt -0.0314724 0.0379955
vt -0.0679634 0.00546741
f 11/48/21 12/49/21 22/50/21

vn 0.0215737 -0.999582 0.0192227
f 22/50/22 12/49/22 11/48/22

v 0.110126 0.108266 -9.49668e-20
vt -0.0390846 -0.079856
vn 0.0413363 0.998961 -0.0192108
vt 0.0243841 -0.0592359
vt -0.0199384 -0.0386159
f 23/51/23 22/52/23 12/53/23

vn -0.0413363 -0.998961 0.0192108
f 12/53/24 22/52/24 23/51/24

vt -0.0488952 0.0931274
vn -0.999759 0.0219624 -0.000422354
vt -1.99859e-05 0.0940675
v 0.0567428 0.135605 -0.028718
vt -0.0242038 0.115215
f 22/54/25 12/55/25 24/56/25

vn 0.999759 -0.0219624 0.000422354
f 24/56/26 12/55/26 22/54/26

vt 0.000924621 0.137845
vn -0.998859 0.0439059 0.0187793
vt -0.0232811 0.116201
vt 0.000889285 0.095038
f 9/57/27 24/58/27 12/59/27

v 0.0561791 0.161282 -0.0580394
vt 0.0470209 0.136863
vn 0.999021 -0.021946 -0.0384239
vt -0.00189047 0.136863
vt 0.0223292 0.115234
f 25/60/28 9/61/28 24/62/28

v 0.110126 0.161282 -9.49668e-20
f 26/35/6 25/34/6 9/13/6

f 9/13/7 25/34/7 26/35/7

f 8/14/6 9/13/6 25/34/6

f 25/34/7 9/13/7 8/14/7

vt -0.0470209 0.135817
vn -0.999261 1.21099e-16 0.0384332
vt 0.00189047 0.135817
v 0.0572953 0.187791 -0.0290197
vt -0.0225652 0.15814
f 25/63/29 9/64/29 27/65/29

vn 0.999261 -1.21099e-16 -0.0384332
f 27/65/30 9/64/30 25/63/30

v 0.0584114 0.214299 3.41607e-20
vt 0.00189047 0.180463
vn -0.999261 2.42226e-31 0.0384332
f 28/66/31 27/65/31 9/64/31

v 0.0561791 0.214299 -0.0580394
vt 0.0470209 0.180463
vn 0.999261 1.17872e-16 -0.0384332
vt -0.00189047 0.180463
vt 0.0225652 0.15814
f 29/67/32 28/68/32 27/69/32

vn -0.999261 -1.17872e-16 0.0384332
f 27/69/33 28/68/33 29/67/33

vn 0.999261 -2.42226e-31 -0.0384332
f 9/64/34 27/65/34 28/66/34

v 0.110126 0.214299 -9.49668e-20
vt -0.0927377 7.9972e-20
vn 0 -1 -0
vt -0.0491886 -2.87669e-20
vt -0.0473087 0.0488753
f 30/70/35 28/71/35 29/72/35

vn -0 1 0
f 29/72/36 28/71/36 30/70/36

v 0.0104173 0.211323 -0.0580394
vt 0.0485676 0.0210553
vn 0.0602834 -0.998179 -0.00194101
vt 0.0473275 0.0596527
vt -0.00158296 0.0599581
v 0.00446457 0.211323 -0.0580394
vt 0.048729 0.0160542
f 31/73/37 29/74/37 28/75/37 32/76/37 

vt -0.00375964 0.177956
vt -0.0473087 0.180463
vt -0.00877248 0.177956
f 32/77/11 1/24/11 29/78/11 31/79/11 

f 31/79/12 29/78/12 1/24/12 32/77/12 

vn -0.0602834 0.998179 0.00194101
f 32/76/38 28/75/38 29/74/38 31/73/38 

vt 0.0491886 0.00924239
vn 6.45135e-18 -0.998688 0.051215
v 0.00446457 0.214299 -9.49668e-20
vt 0.00375964 0.00924239
vt 0.00375964 -0.0396971
f 28/80/39 33/81/39 32/82/39

vn -4.34257e-19 1.69765e-17 1
vt 0.00375964 0.180463
vt 0.0491886 0.180463
v 0.114591 0.218764 -9.49668e-20
vt 0.0964973 0.184222
f 3/9/40 33/83/40 28/84/40 34/85/40 

vn 4.34257e-19 -1.69765e-17 -1
f 34/85/41 28/84/41 33/83/41 3/9/41 

vn -6.45135e-18 0.998688 -0.051215
f 32/82/42 33/81/42 28/80/42

vt 0.0488753 0.177956
vt 7.9972e-20 0.180463
f 32/86/5 33/87/5 7/11/5

f 7/11/8 33/87/8 32/86/8

f 10/16/5 32/86/5 7/11/5

f 7/11/8 32/86/8 10/16/8

v 0.114591 0.218764 -0.0580394
vt 0.0964973 0.0488753
vt 8.31709e-18 7.9972e-20
vt 0.0964973 7.9972e-20
f 35/88/6 3/89/6 34/90/6

vt -2.99176e-18 0.0488753
f 3/89/6 35/88/6 1/91/6

f 1/91/7 35/88/7 3/89/7

vt -0.0964973 0.184222
v 0.110126 0.214299 -0.0580394
vt -0.0927377 0.180463
v 0.104173 0.211323 -0.0580394
vt -0.0877248 0.177956
f 35/92/11 36/93/11 37/94/11 29/78/11 1/24/11 

v 0.110126 0.00446457 -0.0580394
vt -0.0927377 0.00375964
v 0.110126 0.055249 -0.0580394
vt -0.0927377 0.0465255
v 0.110126 0.108266 -0.0580394
vt -0.0927377 0.0911712
v 0.110126 0.161282 -0.0580394
vt -0.0927377 0.135817
v 0.110126 0.206858 -0.0580394
vt -0.0927377 0.174196
f 17/29/11 38/95/11 39/96/11 40/97/11 41/98/11 42/99/11 36/93/11 35/92/11 

f 35/92/12 36/93/12 42/99/12 41/98/12 40/97/12 39/96/12 38/95/12 17/29/12 

f 1/24/12 29/78/12 37/94/12 36/93/12 35/92/12 

vt -0.00359079 -0.0524594
vn -0.0617947 -0.996435 0.0574374
vt 0.0239249 -0.0821685
vt 0.0631368 -0.0524594
f 29/100/43 37/101/43 30/102/43

vn 0.0617947 0.996435 -0.0574374
f 30/102/44 37/101/44 29/100/44

vt -0.0488753 0.174196
vn -1 0 -0
vt -7.9972e-20 0.135817
vt -0.0488753 0.180463
f 42/103/45 26/104/45 36/105/45

vt -0.0488753 0.135817
f 26/104/45 42/103/45 41/106/45

vn 1 -0 0
f 41/106/46 42/103/46 26/104/46

f 36/105/46 26/104/46 42/103/46

vt -7.9972e-20 0.180463
f 36/105/45 26/104/45 30/107/45

f 30/107/46 26/104/46 36/105/46

vt 0.0927377 0.0488753
f 25/34/6 26/35/6 41/108/6

f 41/108/7 26/35/7 25/34/7

vt -7.9972e-20 0.0911712
f 41/106/45 23/109/45 26/104/45

f 26/104/46 23/109/46 41/106/46

v 0.110126 0.00446457 -9.49668e-20
vt 0.0927377 0.00375964
v 0.114591 0 -9.49668e-20
vt 0.0964973 0
vt 0.0927377 0.135817
vt 0.0927377 0.0911712
vt 0.0927377 0.0465255
f 43/110/3 44/111/3 34/85/3 26/112/3 23/113/3 20/114/3 

f 20/114/4 23/113/4 26/112/4 34/85/4 44/111/4 43/110/4 

vt -0.0488753 0.0465255
vt -7.9972e-20 0.0465255
f 39/115/45 20/116/45 23/109/45

f 19/34/6 20/35/6 39/108/6

f 39/108/7 20/35/7 19/34/7

vt -0.0488753 0.00375964
f 20/116/45 39/115/45 38/117/45

f 38/117/46 39/115/46 20/116/46

f 23/109/46 20/116/46 39/115/46

vt -0.0488753 0.0911712
f 23/109/45 40/118/45 39/115/45

vt 0.0488753 -0.0453933
vn 0.0206852 0.999786 3.22923e-18
vt 1.45575e-17 -0.0908319
vt 0.0488753 -0.0908319
f 22/119/47 23/120/47 40/121/47

vn -0.0206852 -0.999786 -3.22923e-18
f 40/121/48 23/120/48 22/119/48

f 23/109/45 41/106/45 40/118/45

f 40/118/46 41/106/46 23/109/46

f 39/115/46 40/118/46 23/109/46

vt -7.9972e-20 0.00375964
f 38/117/45 43/122/45 20/116/45

f 43/35/6 38/108/6 16/30/6

f 16/30/7 38/108/7 43/35/7

f 20/116/46 43/122/46 38/117/46

v 0.0561791 0.00446457 -2.24094e-19
vt 0.0473087 1.88711e-19
f 16/30/6 45/123/6 43/35/6

f 43/35/7 45/123/7 16/30/7

vt 0.0964973 2.06903e-36
vn -4.34257e-19 1.69764e-17 1
vt 0.0473087 0.00375964
vt 8.31709e-18 1.35764e-36
f 44/124/49 43/110/49 45/125/49 2/126/49 

vn 4.34257e-19 -1.69764e-17 -1
f 2/126/50 45/125/50 43/110/50 44/124/50 

vt -0.0964973 0.0488753
vt -0.0964973 7.9972e-20
vt -8.31709e-18 7.9972e-20
f 17/127/35 44/128/35 2/129/35

vt 7.9972e-20 0.184222
vt 7.9972e-20 0
vt 0.0488753 0
f 34/130/5 44/131/5 17/132/5

f 17/132/8 44/131/8 34/130/8

f 2/129/36 44/128/36 17/127/36

vt -8.31709e-18 0.0488753
f 17/127/35 2/129/35 14/133/35

f 14/133/36 2/129/36 17/127/36

vt -7.9972e-20 -5.10561e-34
vn -1 -6.1387e-17 -4.46594e-32
vt -0.0488753 -5.10561e-34
f 2/134/51 1/1/51 14/135/51

vn 1 6.1387e-17 4.46594e-32
f 14/135/52 1/1/52 2/134/52

vt 0.0488753 0.184222
f 34/130/5 17/132/5 35/136/5

f 35/136/8 17/132/8 34/130/8

f 34/90/7 3/89/7 35/88/7

f 4/15/6 45/123/6 16/30/6

f 16/30/7 45/123/7 4/15/7

vt 0.0507296 0.00375964
vn 0.999261 -1.30126e-16 0.0384332
v 0.0572953 0.0298568 -0.0290197
vt 0.0262739 0.0251426
vt 0.00181822 0.00375964
f 16/137/53 46/138/53 45/139/53

vn -0.999261 1.30126e-16 -0.0384332
f 45/139/54 46/138/54 16/137/54

vt 5.56532e-18 0.0486407
vn 0.999035 -0.0439137 1.13065e-16
vt 5.54286e-18 0.00583351
vt 0.0244376 0.0272371
f 18/140/55 45/141/55 46/142/55

vn -0.999035 0.0439137 -1.13065e-16
f 46/142/56 45/141/56 18/140/56

vt -0.0470209 0.0465255
vn -0.999261 -1.26609e-16 0.0384332
vt -0.0225652 0.0251426
vt 0.00189047 0.0465255
f 19/143/57 46/144/57 18/145/57

vn 0.999261 1.26609e-16 -0.0384332
f 18/145/58 46/144/58 19/143/58

vt 0.0488753 0.00159596
vn 0.999035 0.0439137 -1.13065e-16
vt 0.0488753 0.0444031
vt 0.0244376 0.0229995
f 16/146/59 19/147/59 46/148/59

vn -0.999035 -0.0439137 1.13065e-16
f 46/148/60 19/147/60 16/146/60

vn 0.999261 0 -0.0384332
vt 0.0470209 0.135817
f 29/67/61 27/69/61 25/149/61

vn -0.999261 -0 0.0384332
f 25/149/62 27/69/62 29/67/62

vn -0.999021 0.021946 0.0384239
f 24/62/63 9/61/63 25/60/63

vn 0.998859 -0.0439059 -0.0187793
f 12/59/64 24/58/64 9/57/64

vt 0.0479569 0.135817
vn 0.999815 -5.33993e-20 -0.0192202
vt 0.0232607 0.114193
vt 0.0479569 0.0921111
f 25/150/65 24/151/65 22/152/65

vn -0.999815 5.33993e-20 0.0192202
f 22/152/66 24/151/66 25/150/66

