# Alias OBJ Model File
# Exported from SketchUp, (c) 2000-2012 Trimble Navigation Limited
# File units = meters

mtllib gameboard.mtl

g Mesh1 Model

usemtl Wax_01
v -0.536425 -1.44382e-15 -0.318524
vt 0.586642 0.348342
vn 0 -1 -0
v 0.545716 -1.44382e-15 -0.318524
vt -0.596802 0.348342
v 0.545716 -1.44382e-15 0.350276
vt -0.596802 -0.383067
v -0.536425 -1.44382e-15 0.350276
vt 0.586642 -0.383067
f 1/1/1 2/2/1 3/3/1 4/4/1 

vt -0.596802 -1.57898e-15
vn 0 0 -1
vt 0.586642 -1.57898e-15
v -0.536425 0.1008 -0.318524
vt 0.586642 0.110236
v 0.545716 0.1008 -0.318524
vt -0.596802 0.110236
f 2/5/2 1/6/2 5/7/2 6/8/2 

vt -0.348342 -1.57898e-15
vn -1 0 -0
vt 0.383067 -1.57898e-15
v -0.536425 0.1008 0.350276
vt 0.383067 0.110236
vt -0.348342 0.110236
f 1/9/3 4/10/3 7/11/3 5/12/3 

vt -0.586642 -1.57898e-15
vn 0 0 1
vt 0.596802 -1.57898e-15
v 0.545716 0.1008 0.350276
vt 0.596802 0.110236
vt -0.586642 0.110236
f 4/13/4 3/14/4 8/15/4 7/16/4 

vt -0.383067 -1.57898e-15
vn 1 0 -0
vt 0.348342 -1.57898e-15
vt 0.348342 0.110236
vt -0.383067 0.110236
f 3/17/5 2/18/5 6/19/5 8/20/5 

vt 0.596802 0.348342
vn 0 1 -0
v 0.471928 0.1008 -0.0325934
vt 0.516107 0.0356446
vt 0.596802 -0.383067
f 6/21/6 9/22/6 8/23/6

v 0.361406 0.1008 -0.242151
vt 0.395239 0.264819
f 6/21/6 10/24/6 9/22/6

v 0.0478178 0.1008 -0.253315
vt 0.0522942 0.277028
f 6/21/6 11/25/6 10/24/6

v -0.294759 0.1008 -0.232909
vt -0.322353 0.254712
f 6/21/6 12/26/6 11/25/6

vt -0.586642 0.348342
f 5/27/6 12/26/6 6/21/6

v -0.430712 0.1008 -0.188735
vt -0.471033 0.206403
f 12/26/6 5/27/6 13/28/6

v -0.430712 0.1008 -0.0457858
vt -0.471033 0.050072
f 13/28/6 5/27/6 14/29/6

vt -0.586642 -0.383067
f 7/30/6 14/29/6 5/27/6

v -0.270213 0.1008 0.243009
vt -0.295508 -0.265758
f 14/29/6 7/30/6 15/31/6

v -0.248028 0.1008 0.266868
vt -0.271247 -0.29185
f 15/31/6 7/30/6 16/32/6

v -0.220424 0.1008 0.284172
vt -0.241059 -0.310774
f 16/32/6 7/30/6 17/33/6

v -0.189282 0.1008 0.293742
vt -0.207001 -0.32124
f 17/33/6 7/30/6 18/34/6

f 18/34/6 7/30/6 8/23/6

v -0.156724 0.1008 0.294926
vt -0.171396 -0.322535
f 18/34/6 8/23/6 19/35/6

v -0.124969 0.1008 0.287643
vt -0.136668 -0.31457
f 19/35/6 8/23/6 20/36/6

v -0.0961814 0.1008 0.272389
vt -0.105185 -0.297888
f 20/36/6 8/23/6 21/37/6

v 0.118885 0.1008 0.285429
vt 0.130014 -0.312149
f 21/37/6 8/23/6 22/38/6

v 0.286286 0.1008 0.285429
vt 0.313086 -0.312149
f 22/38/6 8/23/6 23/39/6

v 0.338016 0.1008 0.126221
vt 0.369659 -0.138037
f 23/39/6 8/23/6 24/40/6

f 24/40/6 8/23/6 9/22/6

v 0.235185 0.1008 -0.0416574
vt 0.257202 0.0455571
f 25/41/6 24/40/6 9/22/6

v 0.202586 0.1008 0.0278253
vt 0.22155 -0.0304302
f 24/40/6 25/41/6 26/42/6

v 0.150732 0.1008 -0.0935167
vt 0.164842 0.102271
f 25/41/6 27/43/6 26/42/6

f 10/24/6 27/43/6 25/41/6

f 10/24/6 11/25/6 27/43/6

vt 0.00327163 0.110236
vn -0.840732 0 0.541452
vt -0.204592 0.110236
v 0.0478178 0.0016 -0.253315
vt -0.204592 0.00174978
v 0.150732 0.0016 -0.0935167
vt 0.00327163 0.00174978
f 27/44/7 11/45/7 28/46/7 29/47/7 

vt 0.193963 0.110236
vn 0.541452 0 0.840732
v -0.11198 0.1008 -0.150401
vt -0.0139004 0.110236
v -0.11198 0.0016 -0.150401
vt -0.0139004 0.00174978
vt 0.193963 0.00174978
f 11/48/8 30/49/8 31/50/8 28/51/8 

v -0.210736 0.1008 -0.117261
vt -0.230464 0.128238
vt -0.122463 0.16448
f 11/25/6 32/52/6 30/53/6

f 11/25/6 12/26/6 32/52/6

vt -0.23921 0.110236
vn -0.809017 0 0.587785
vt -0.395541 0.110236
v -0.294759 0.0032 -0.232909
vt -0.395541 0.00349956
v -0.210736 0.0032 -0.117261
vt -0.23921 0.00349956
f 32/54/9 12/55/9 33/56/9 34/57/9 

vt -0.227865 0.110236
vn 0.309017 0 0.951057
vt -0.384197 0.110236
v -0.430712 0.0032 -0.188735
vt -0.384197 0.00349956
vt -0.227865 0.00349956
f 12/58/10 13/59/10 35/60/10 33/61/10 

vt 0.206403 0.110236
vt 0.050072 0.110236
v -0.430712 0.0032 -0.0457858
vt 0.050072 0.00349956
vt 0.206403 0.00349956
f 13/62/5 14/63/5 36/64/5 35/65/5 

vt 0.463452 0.110236
vn 0.309017 0 -0.951057
v -0.294759 0.1008 -0.00161205
vt 0.307121 0.110236
v -0.294759 0.0032 -0.00161205
vt 0.307121 0.00349956
vt 0.463452 0.00349956
f 14/66/11 37/67/11 38/68/11 36/69/11 

v -0.292749 0.1008 0.182466
vt -0.320155 -0.199547
vt -0.322353 0.00176296
f 14/29/6 39/70/6 37/71/6

v -0.285466 0.1008 0.214221
vt -0.31219 -0.234275
f 14/29/6 40/72/6 39/70/6

f 14/29/6 15/31/6 40/72/6

vt 0.669959 0.656168
vn 0.937175 0 -0.348859
vt 0.446639 0.656168
vn 0.814951 0 -0.57953
v -0.270213 0.0048 0.243009
vt 0.446639 -1.8735e-16
v -0.285466 0.0048 0.214221
vt 0.669959 -2.91434e-16
f 40/73/12 15/74/13 41/75/13 42/76/12 

vt 0.22332 0.656168
vn 0.637188 0 -0.770708
v -0.248028 0.0048 0.266868
vt 0.22332 -9.02056e-17
vt 0.446639 -1.94289e-16
f 15/74/13 16/77/14 43/78/14 41/79/13 

vt -8.55149e-14 0.656168
vn 0.416003 0 -0.909363
v -0.220424 0.0048 0.284172
vt -8.55149e-14 0
vt 0.22332 0
f 16/77/14 17/80/15 44/81/15 43/82/14 

vt 5.35967 0.656168
vt 5.13635 0.656168
vn 0.166467 0 -0.986047
v -0.189282 0.0048 0.293742
vt 5.13635 0
vt 5.35967 0
f 17/83/15 18/84/16 45/85/16 44/86/15 

vt 4.91303 0.656168
vn -0.0944127 0 -0.995533
v -0.156724 0.0048 0.294926
vt 4.91303 2.17881e-15
vt 5.13635 2.27596e-15
f 18/84/16 19/87/17 46/88/17 45/89/16 

vt 4.68971 0.656168
vn -0.348859 0 -0.937175
v -0.124969 0.0048 0.287643
vt 4.68971 2.07473e-15
vt 4.91303 2.17187e-15
f 19/87/17 20/90/18 47/91/18 46/92/17 

vt 4.46639 0.656168
vn -0.57953 0 -0.814951
v -0.0961814 0.0048 0.272389
vt 4.46639 3.94823e-15
vt 4.68971 4.14252e-15
f 20/90/18 21/93/19 48/94/19 47/95/18 

v -0.0723224 0.1008 0.250205
vt 4.24307 0.656168
vn -0.770708 0 -0.637188
v -0.0723224 0.0048 0.250205
vt 4.24307 3.747e-15
vt 4.46639 3.94129e-15
f 21/93/19 49/96/20 50/97/20 48/98/19 

vt -0.0790928 -0.273627
f 21/37/6 22/38/6 49/99/6

v -0.0550182 0.1008 0.222601
vt -0.0601687 -0.243439
f 49/99/6 22/38/6 51/100/6

v -0.0454481 0.1008 0.191459
vt -0.0497027 -0.209382
f 51/100/6 22/38/6 52/101/6

v -0.0442643 0.1008 0.158901
vt -0.048408 -0.173776
f 52/101/6 22/38/6 53/102/6

v -0.00906633 0.1008 0.00939725
vt -0.00991506 -0.010277
f 53/102/6 22/38/6 54/103/6

v 0.0671551 0.1008 0.126221
vt 0.0734418 -0.138037
f 54/103/6 22/38/6 55/104/6

vt -0.153976 0.110236
vn 0.951057 0 -0.309017
vt -0.337048 0.110236
v 0.118885 0.0064 0.285429
vt -0.337048 0.00699913
v 0.0671551 0.0064 0.126221
vt -0.153976 0.00699913
f 55/105/21 22/106/21 56/107/21 57/108/21 

vt -0.130014 0.110236
vt -0.313086 0.110236
v 0.286286 0.0064 0.285429
vt -0.313086 0.00699913
vt -0.130014 0.00699913
f 22/109/2 23/110/2 58/111/2 56/112/2 

vt 0.200123 0.110236
vn -0.951057 0 -0.309017
vt 0.0170504 0.110236
v 0.338016 0.0064 0.126221
vt 0.0170504 0.00699913
vt 0.200123 0.00699913
f 23/113/22 24/114/22 59/115/22 58/116/22 

vt 0.380197 0.110236
vn -0.587785 0 0.809017
vt 0.197124 0.110236
v 0.202586 0.0064 0.0278253
vt 0.197124 0.00699913
vt 0.380197 0.00699913
f 24/117/23 26/118/23 60/119/23 59/120/23 

vt 0.161352 0.110236
vn 0.587785 0 0.809017
vt -0.0217207 0.110236
vt -0.0217207 0.00699913
vt 0.161352 0.00699913
f 26/121/24 55/122/24 57/123/24 60/124/24 

f 27/43/6 55/104/6 26/42/6

f 55/104/6 27/43/6 54/103/6

vt 0.0139004 0.110236
vn -0.541452 0 -0.840732
vt -0.193963 0.110236
vt -0.193963 0.00174978
v -0.00906633 0.0016 0.00939725
vt 0.0139004 0.00174978
f 54/125/25 27/126/25 29/127/25 61/128/25 

f 61/103/6 29/43/6 28/25/6 31/53/6 

vt 0.204592 0.110236
vn 0.840732 0 -0.541452
vt -0.00327163 0.110236
vt -0.00327163 0.00174978
vt 0.204592 0.00174978
f 30/129/26 54/130/26 61/131/26 31/132/26 

v -0.0889857 0.1008 0.074499
vt -0.0973159 -0.0814731
f 30/53/6 62/133/6 54/103/6

v -0.11659 0.1008 0.0571948
vt -0.127504 -0.062549
f 62/133/6 30/53/6 63/134/6

v -0.147732 0.1008 0.0476247
vt -0.161561 -0.052083
f 30/53/6 64/135/6 63/134/6

v -0.180289 0.1008 0.0464409
vt -0.197167 -0.0507883
f 30/53/6 65/136/6 64/135/6

f 30/53/6 32/52/6 65/136/6

v -0.212044 0.1008 0.0537239
vt -0.231895 -0.0587532
f 32/52/6 66/137/6 65/136/6

v -0.240832 0.1008 0.0689775
vt -0.263377 -0.0754348
f 32/52/6 67/138/6 66/137/6

v -0.264691 0.1008 0.0911623
vt -0.28947 -0.0996963
f 32/52/6 68/139/6 67/138/6

v -0.281995 0.1008 0.118766
vt -0.308394 -0.129884
f 32/52/6 69/140/6 68/139/6

v -0.291565 0.1008 0.149908
vt -0.31886 -0.163942
f 32/52/6 70/141/6 69/140/6

f 37/71/6 70/141/6 32/52/6

f 70/141/6 37/71/6 39/70/6

vt 1.1166 0.656168
vn 0.986047 0 0.166467
vt 0.893279 0.656168
vn 0.995533 0 -0.0944127
v -0.292749 0.0048 0.182466
vt 0.893279 -7.97973e-16
v -0.291565 0.0048 0.149908
vt 1.1166 -9.92262e-16
f 70/142/27 39/143/28 71/144/28 72/145/27 

vt 0.669959 -5.82867e-16
vt 0.893279 -7.84095e-16
f 39/143/28 40/73/12 42/146/12 71/147/28 

v -0.0550182 0.0048 0.222601
v -0.0454481 0.0048 0.191459
v -0.0442643 0.0048 0.158901
v -0.0515473 0.0048 0.127146
vt -0.0563728 -0.139048
v -0.0668009 0.0048 0.098358
vt -0.0730544 -0.107566
v -0.0889857 0.0048 0.074499
v -0.11659 0.0048 0.0571948
v -0.147732 0.0048 0.0476247
v -0.180289 0.0048 0.0464409
v -0.212044 0.0048 0.0537239
v -0.240832 0.0048 0.0689775
v -0.264691 0.0048 0.0911623
v -0.281995 0.0048 0.118766
f 43/32/6 44/33/6 45/34/6 46/35/6 47/36/6 48/37/6 50/99/6 73/100/6 74/101/6 75/102/6 76/148/6 77/149/6 78/133/6 79/134/6 80/135/6 81/136/6 82/137/6 83/138/6 84/139/6 85/140/6 72/141/6 71/70/6 42/72/6 41/31/6 

vt 4.01975 0.656168
vn -0.909363 0 -0.416003
vt 4.01975 5.32907e-15
vt 4.24307 5.62744e-15
f 49/96/20 51/150/29 73/151/29 50/152/20 

vt 3.79643 0.656168
vn -0.986047 0 -0.166467
vt 3.79643 3.35842e-15
vt 4.01975 3.55965e-15
f 51/150/29 52/153/30 74/154/30 73/155/29 

vt 3.57312 0.656168
vn -0.995533 0 0.0944127
vt 3.57312 3.1572e-15
vt 3.79643 3.35149e-15
f 52/153/30 53/156/31 75/157/31 74/158/30 

v -0.0515473 0.1008 0.127146
vt 3.3498 0.656168
vn -0.937175 0 0.348859
vt 3.3498 2.96291e-15
vt 3.57312 3.16414e-15
f 53/156/31 86/159/32 76/160/32 75/161/31 

f 54/103/6 86/148/6 53/102/6

v -0.0668009 0.1008 0.098358
f 54/103/6 87/149/6 86/148/6

f 54/103/6 62/133/6 87/149/6

vt 3.12648 0.656168
vn -0.814951 0 0.57953
vt 2.90316 0.656168
vn -0.637188 0 0.770708
vt 2.90316 1.27676e-15
vt 3.12648 1.38084e-15
f 87/162/33 62/163/34 78/164/34 77/165/33 

vt 2.67984 0.656168
vn -0.416003 0 0.909363
vt 2.67984 -6.93889e-18
vt 2.90316 -6.93889e-18
f 62/163/34 63/166/35 79/167/35 78/168/34 

vt 2.45652 0.656168
vn -0.166467 0 0.986047
vt 2.45652 0
vt 2.67984 0
f 63/166/35 64/169/36 80/170/36 79/171/35 

vt 2.2332 0.656168
vn 0.0944127 0 0.995533
vt 2.2332 -9.85323e-16
vt 2.45652 -1.08247e-15
f 64/169/36 65/172/37 81/173/37 80/174/36 

vt 2.00988 0.656168
vn 0.348859 0 0.937175
vt 2.00988 -1.76942e-15
vt 2.2332 -1.97065e-15
f 65/172/37 66/175/38 82/176/38 81/177/37 

vt 1.78656 0.656168
vn 0.57953 0 0.814951
vt 1.78656 -1.57513e-15
f 66/175/38 67/178/39 83/179/39 82/176/38 

vt 1.56324 0.656168
vn 0.770708 0 0.637188
vt 1.56324 -1.38778e-15
vt 1.78656 -1.58207e-15
f 67/178/39 68/180/40 84/181/40 83/182/39 

vt 1.33992 0.656168
vn 0.909363 0 0.416003
vt 1.33992 -1.17267e-15
vt 1.56324 -1.3739e-15
f 68/180/40 69/183/41 85/184/41 84/185/40 

vt 1.1166 -1.47798e-15
vt 1.33992 -1.77636e-15
f 69/183/41 70/142/27 72/186/27 85/187/41 

vt 3.12648 2.77556e-15
vt 3.3498 2.96985e-15
f 86/159/32 87/162/33 77/188/33 76/189/32 

vt 0.188048 0.110236
vn -0.809017 0 -0.587785
vt 0.0317167 0.110236
vt 0.0317167 0.00349956
vt 0.188048 0.00349956
f 37/190/42 32/191/42 34/192/42 38/193/42 

f 36/29/6 38/71/6 34/52/6 33/26/6 35/28/6 

f 58/39/6 59/40/6 60/42/6 57/104/6 56/38/6 

vt 0.434677 0.110236
vn 0.846262 0 0.532767
vt 0.175582 0.110236
v 0.235185 0.0016 -0.0416574
vt 0.175582 0.00174978
v 0.361406 0.0016 -0.242151
vt 0.434677 0.00174978
f 10/194/43 25/195/43 88/196/43 89/197/43 

vt -0.255271 0.110236
vn 0.0382582 0 -0.999268
vt -0.514365 0.110236
v 0.471928 0.0016 -0.0325934
vt -0.514365 0.00174978
vt -0.255271 0.00174978
f 25/198/44 9/199/44 90/200/44 88/201/44 

vt 0.209236 0.110236
vn -0.88452 0 0.466501
vt -0.0498586 0.110236
vt -0.0498586 0.00174978
vt 0.209236 0.00174978
f 9/202/45 10/203/45 89/204/45 90/205/45 

f 90/22/6 89/24/6 88/41/6

