# Alias OBJ Model File
# Exported from SketchUp, (c) 2000-2012 Trimble Navigation Limited
# File units = meters

mtllib red_pentagon.mtl

g Mesh1 Model

usemtl Wax_01
v 0.0537263 0.0924086 0.0825118
vt 0.0587558 -0.090236
vn 0 1 -0
v 0.0906821 0.0924086 -0.0312265
vt 0.0991711 0.0341497
v -0.00606946 0.0924086 -0.101521
vt -0.00663764 0.111024
v -0.102821 0.0924086 -0.0312265
vt -0.112446 0.0341497
v -0.0658652 0.0924086 0.0825118
vt -0.072031 -0.090236
f 1/1/1 2/2/1 3/3/1 4/4/1 5/5/1 

v 0.0537263 0.0008 0.0825118
vt -0.067663 0.000874891
vn 0.951057 -1.44192e-32 0.309017
v 0.0906821 0.0008 -0.0312265
vt 0.0631238 0.000874891
vt 0.0631238 0.101059
vt -0.067663 0.101059
f 6/6/2 7/7/2 2/8/2 1/9/2 

usemtl FrontColor
v -0.00606946 0.0008 -0.101521
vt 0.238955 3.99687
vn 0 -1 -0
vt -3.57016 1.22939
vt -2.11521 -3.24849
v -0.0658652 0.0008 0.0825118
vt 2.59312 -3.24849
v -0.102821 0.0008 -0.0312265
vt 4.04807 1.22939
f 8/10/3 7/11/3 6/12/3 9/13/3 10/14/3 

usemtl Wax_01
vt -0.0601584 0.000874891
vn 0.587785 0 -0.809017
vt 0.0706284 0.000874891
vt 0.0706284 0.101059
vt -0.0601584 0.101059
f 7/15/4 8/16/4 3/17/4 2/18/4 

vt -0.0598884 0.000874891
vn -0.587785 0 -0.809017
vt 0.0708984 0.000874891
vt 0.0708984 0.101059
vt -0.0598884 0.101059
f 8/19/5 10/20/5 4/21/5 3/22/5 

vt -0.0672261 0.000874891
vn -0.951057 0 0.309017
vt 0.0635607 0.000874891
vt 0.0635607 0.101059
vt -0.0672261 0.101059
f 10/23/6 9/24/6 5/25/6 4/26/6 

vt -0.072031 0.000874891
vn 0 0 1
vt 0.0587558 0.000874891
vt 0.0587558 0.101059
vt -0.072031 0.101059
f 9/27/7 6/28/7 1/29/7 5/30/7 

